<svg width="208" height="208" xmlns="http://www.w3.org/2000/svg"><path d="M108 108v-1l-8-6-2 1v2l-3 2v1l-6 7-8 9-8 3-3 4a35223 35223 0 01-25 39c1 1 1 4 6 8l3 1c5 4 7 3 9 3l5-4a35387 35387 0 0125-37l1-7 6-11a2047 2047 0 015-9l1-4 2-1z" fill="black"/><path d="M107 82l1 4 2-4 4-7v-2l1-6 2-4a35542 35542 0 0028-36h1c1-1 3-1 8 3l3 1c5 4 5 6 5 7l1 1-3 6a34958 34958 0 00-25 37l-5 2-3 1-5 6-3 3 5-1 7-2 2-2 4-3 5-2a35923 35923 0 0046-5c1 1 3 2 4 8l1 3c1 6 0 8-1 9l-7 3a34063 34063 0 00-43 8l-5-2-3-1h-8l-4 1 4 2 7 4h2l5 1 5 2a35264 35264 0 0036 29c1 1 1 3-3 8l-1 3c-4 5-6 5-7 5l-1 1-6-3a34512 34512 0 00-37-25l-2-5-1-3-6-5-3-3 1 5 2 7 2 2 3 4 2 5a39398 39398 0 005 46c-1 1-2 3-8 4l-3 1c-6 1-8 0-9-1l-3-7a35268 35268 0 00-8-43l2-5 1-3-1-8a252 252 0 0010-19v-2h-1l-8-6h-2c-1 0-2 0-3 2v1a15 15 0 00-2 1l-1 3a1580 1580 0 01-8 9h-1l-7 2-2 2-4 3-5 2a35323 35323 0 00-46 5c-1-1-3-2-4-8l-1-3c-1-6 0-8 1-9l6-3a33759 33759 0 0044-8l5 2 3 1 8-1h4l-4-2-7-4h-2l-6-1-4-2a35712 35712 0 00-36-28v-1c-1-1-1-3 3-8l1-3c4-5 6-5 7-5l1-1 6 3a35523 35523 0 0037 25l2 5 1 3 6 5 3 2-1-4-2-7-2-2-3-4-2-5a35741 35741 0 00-5-46c1-1 2-3 8-4l3-1c6-1 8 0 9 1l3 6a37832 37832 0 008 44l-2 5-1 3v8z"/></svg>