<svg width="1863" height="139" viewBox="0 0 1863 139" fill="none" xmlns="http://www.w3.org/2000/svg">
<path d="M677.854 67.5L687.682 41.22H689.842L699.706 67.5H697.762L694.738 59.184H682.75L679.726 67.5H677.854ZM683.326 57.672H694.198L688.798 42.804H688.726L683.326 57.672ZM710.097 42.408C708.753 42.408 707.397 42.54 706.029 42.804V52.488H709.377C712.089 52.488 714.141 52.044 715.533 51.156C716.925 50.244 717.621 48.948 717.621 47.268C717.621 44.028 715.113 42.408 710.097 42.408ZM720.681 59.94C720.681 62.268 719.889 64.176 718.305 65.664C716.745 67.128 714.129 67.86 710.457 67.86C708.153 67.86 706.077 67.668 704.229 67.284V41.436C706.149 41.052 708.105 40.86 710.097 40.86C716.265 40.86 719.349 42.936 719.349 47.088C719.349 48.6 718.869 49.884 717.909 50.94C716.949 51.972 715.617 52.692 713.913 53.1V53.172C716.121 53.532 717.801 54.288 718.953 55.44C720.105 56.592 720.681 58.092 720.681 59.94ZM718.881 59.832C718.881 57.864 718.113 56.4 716.577 55.44C715.041 54.48 712.641 54 709.377 54H706.029V65.916C707.493 66.18 708.969 66.312 710.457 66.312C716.073 66.312 718.881 64.152 718.881 59.832ZM745.697 64.152C743.369 66.624 740.297 67.86 736.481 67.86C732.665 67.86 729.593 66.624 727.265 64.152C724.937 61.68 723.773 58.416 723.773 54.36C723.773 50.304 724.937 47.04 727.265 44.568C729.593 42.096 732.665 40.86 736.481 40.86C740.297 40.86 743.369 42.096 745.697 44.568C748.049 47.04 749.225 50.304 749.225 54.36C749.225 58.416 748.049 61.68 745.697 64.152ZM728.597 63.036C730.589 65.22 733.217 66.312 736.481 66.312C739.745 66.312 742.373 65.22 744.365 63.036C746.381 60.852 747.389 57.96 747.389 54.36C747.389 50.76 746.381 47.868 744.365 45.684C742.373 43.5 739.745 42.408 736.481 42.408C733.217 42.408 730.589 43.5 728.597 45.684C726.605 47.868 725.609 50.76 725.609 54.36C725.609 57.96 726.605 60.852 728.597 63.036ZM755.415 57.528C755.415 63.36 757.911 66.276 762.903 66.276C767.895 66.276 770.391 63.36 770.391 57.528V41.22H772.191V57.492C772.191 60.852 771.387 63.42 769.779 65.196C768.171 66.972 765.867 67.86 762.867 67.86C759.867 67.86 757.563 66.984 755.955 65.232C754.371 63.456 753.579 60.876 753.579 57.492V41.22H755.415V57.528ZM777.262 41.22H796.234V42.804H787.63V67.5H785.83V42.804H777.262V41.22Z" fill="#BF0A36" fill-opacity="0.65"/>
<path d="M709.29 104.08V105.34H707.12C707.82 106.376 708.492 107.403 709.136 108.42L708.03 109.274C707.918 109.069 707.797 108.854 707.666 108.63C707.545 108.397 707.405 108.14 707.246 107.86C707.087 107.58 706.961 107.361 706.868 107.202V112.76H705.468V107.902C704.983 109.041 704.362 110.044 703.606 110.912L702.794 109.666C703.914 108.359 704.717 106.917 705.202 105.34H703.06V104.08H705.468V101.966C704.843 102.041 704.147 102.101 703.382 102.148L703.27 100.972C704.978 100.86 706.831 100.589 708.828 100.16L709.192 101.308C708.352 101.513 707.577 101.667 706.868 101.77V104.08H709.29ZM712.762 106.208L714.148 105.732C714.988 107.841 715.702 110.002 716.29 112.214L714.862 112.676C714.806 112.461 714.675 112.004 714.47 111.304C712.062 111.78 709.766 112.088 707.582 112.228L707.498 110.94C707.89 110.921 708.193 110.903 708.408 110.884C709.687 107.468 710.727 103.921 711.53 100.244L713.028 100.496C712.244 104.015 711.255 107.426 710.06 110.73C711.264 110.599 712.617 110.399 714.12 110.128C713.756 108.961 713.303 107.655 712.762 106.208ZM722.73 103.17V101.868H728.708V103.17H722.73ZM720.252 100.874C719.804 102.601 719.58 104.463 719.58 106.46C719.58 108.457 719.804 110.319 720.252 112.046L718.81 112.214C718.343 110.441 718.11 108.523 718.11 106.46C718.11 104.397 718.343 102.479 718.81 100.706L720.252 100.874ZM721.61 108.91C721.61 108.499 721.764 108.028 722.072 107.496C722.38 106.964 722.809 106.455 723.36 105.97L724.41 106.838C723.99 107.211 723.663 107.589 723.43 107.972C723.197 108.355 723.08 108.667 723.08 108.91C723.08 109.815 723.99 110.268 725.81 110.268C726.771 110.268 727.793 110.142 728.876 109.89L729.086 111.178C727.975 111.467 726.883 111.612 725.81 111.612C724.513 111.612 723.486 111.369 722.73 110.884C721.983 110.389 721.61 109.731 721.61 108.91ZM731.676 102.862C734.476 102.162 736.581 101.812 737.99 101.812C741.537 101.812 743.31 103.291 743.31 106.25C743.31 109.89 740.3 111.71 734.28 111.71L734.168 110.31C736.781 110.31 738.695 109.988 739.908 109.344C741.121 108.691 741.728 107.706 741.728 106.39C741.728 105.317 741.415 104.523 740.79 104.01C740.165 103.497 739.185 103.24 737.85 103.24C736.609 103.24 734.653 103.576 731.984 104.248L731.676 102.862ZM754.034 102.092L755.378 101.672C756.003 102.885 756.479 104.267 756.806 105.816C757.142 107.356 757.31 108.947 757.31 110.59H755.84C755.84 109.069 755.681 107.566 755.364 106.082C755.047 104.598 754.603 103.268 754.034 102.092ZM748.14 101.924C747.72 103.399 747.51 104.957 747.51 106.6C747.51 107.72 747.701 108.667 748.084 109.442C748.467 110.207 748.849 110.59 749.232 110.59C749.493 110.59 749.834 110.305 750.254 109.736C750.674 109.167 751.089 108.355 751.5 107.3L752.83 107.818C752.363 109.143 751.78 110.184 751.08 110.94C750.389 111.687 749.736 112.06 749.12 112.06C748.355 112.06 747.65 111.528 747.006 110.464C746.362 109.4 746.04 108.112 746.04 106.6C746.04 104.855 746.264 103.24 746.712 101.756L748.14 101.924ZM762.672 107.552C762.672 106.581 762.975 105.695 763.582 104.892C764.189 104.089 765.066 103.422 766.214 102.89V102.862C764.067 102.955 761.925 103.002 759.788 103.002V101.672C763.521 101.672 767.325 101.579 771.198 101.392L771.268 102.722C768.935 102.946 767.18 103.483 766.004 104.332C764.828 105.181 764.24 106.208 764.24 107.412C764.24 108.411 764.576 109.204 765.248 109.792C765.929 110.371 766.83 110.66 767.95 110.66C768.473 110.66 769.051 110.609 769.686 110.506L769.854 111.85C769.154 111.971 768.496 112.032 767.88 112.032C766.293 112.032 765.029 111.626 764.086 110.814C763.143 110.002 762.672 108.915 762.672 107.552Z" fill="#BF0A36" fill-opacity="0.65"/>
<path d="M844.436 41.436C846.596 41.052 848.84 40.86 851.168 40.86C854.36 40.86 856.796 41.544 858.476 42.912C860.156 44.256 860.996 46.188 860.996 48.708C860.996 51.348 860.144 53.388 858.44 54.828C856.76 56.244 854.336 56.952 851.168 56.952C849.536 56.952 847.892 56.856 846.236 56.664V67.5H844.436V41.436ZM846.236 55.116C847.748 55.332 849.344 55.44 851.024 55.44C853.664 55.44 855.692 54.876 857.108 53.748C858.524 52.596 859.232 50.964 859.232 48.852C859.232 46.74 858.536 45.144 857.144 44.064C855.752 42.96 853.712 42.408 851.024 42.408C849.416 42.408 847.82 42.54 846.236 42.804V55.116ZM885.833 64.152C883.505 66.624 880.433 67.86 876.617 67.86C872.801 67.86 869.729 66.624 867.401 64.152C865.073 61.68 863.909 58.416 863.909 54.36C863.909 50.304 865.073 47.04 867.401 44.568C869.729 42.096 872.801 40.86 876.617 40.86C880.433 40.86 883.505 42.096 885.833 44.568C888.185 47.04 889.361 50.304 889.361 54.36C889.361 58.416 888.185 61.68 885.833 64.152ZM868.733 63.036C870.725 65.22 873.353 66.312 876.617 66.312C879.881 66.312 882.509 65.22 884.501 63.036C886.517 60.852 887.525 57.96 887.525 54.36C887.525 50.76 886.517 47.868 884.501 45.684C882.509 43.5 879.881 42.408 876.617 42.408C873.353 42.408 870.725 43.5 868.733 45.684C866.741 47.868 865.745 50.76 865.745 54.36C865.745 57.96 866.741 60.852 868.733 63.036ZM894.076 67.5V41.4C896.02 41.04 898.096 40.86 900.304 40.86C903.616 40.86 906.1 41.472 907.756 42.696C909.436 43.896 910.276 45.648 910.276 47.952C910.276 51.624 908.248 53.88 904.192 54.72V54.792C904.792 55.08 905.344 55.584 905.848 56.304C906.376 57.024 907 58.212 907.72 59.868L910.996 67.5H909.088L905.956 60.084C905.548 59.124 905.2 58.392 904.912 57.888C904.648 57.384 904.36 56.94 904.048 56.556C903.736 56.148 903.364 55.884 902.932 55.764C902.5 55.62 902.044 55.524 901.564 55.476C901.084 55.404 900.388 55.368 899.476 55.368H895.876V67.5H894.076ZM895.876 53.856H899.476C902.596 53.856 904.876 53.376 906.316 52.416C907.78 51.456 908.512 50.004 908.512 48.06C908.512 44.292 905.74 42.408 900.196 42.408C898.612 42.408 897.172 42.528 895.876 42.768V53.856ZM913.743 41.22H932.715V42.804H924.111V67.5H922.311V42.804H913.743V41.22ZM952.67 42.768H939.962V52.848H951.95V54.36H939.962V67.5H938.162V41.22H952.67V42.768ZM978.435 64.152C976.107 66.624 973.035 67.86 969.219 67.86C965.403 67.86 962.331 66.624 960.003 64.152C957.675 61.68 956.511 58.416 956.511 54.36C956.511 50.304 957.675 47.04 960.003 44.568C962.331 42.096 965.403 40.86 969.219 40.86C973.035 40.86 976.107 42.096 978.435 44.568C980.787 47.04 981.963 50.304 981.963 54.36C981.963 58.416 980.787 61.68 978.435 64.152ZM961.335 63.036C963.327 65.22 965.955 66.312 969.219 66.312C972.483 66.312 975.111 65.22 977.103 63.036C979.119 60.852 980.127 57.96 980.127 54.36C980.127 50.76 979.119 47.868 977.103 45.684C975.111 43.5 972.483 42.408 969.219 42.408C965.955 42.408 963.327 43.5 961.335 45.684C959.343 47.868 958.347 50.76 958.347 54.36C958.347 57.96 959.343 60.852 961.335 63.036ZM988.55 41.22V65.916H1002.16V67.5H986.678V41.22H988.55ZM1008.86 67.5V41.22H1010.76V67.5H1008.86ZM1038.66 64.152C1036.33 66.624 1033.26 67.86 1029.44 67.86C1025.63 67.86 1022.55 66.624 1020.23 64.152C1017.9 61.68 1016.73 58.416 1016.73 54.36C1016.73 50.304 1017.9 47.04 1020.23 44.568C1022.55 42.096 1025.63 40.86 1029.44 40.86C1033.26 40.86 1036.33 42.096 1038.66 44.568C1041.01 47.04 1042.19 50.304 1042.19 54.36C1042.19 58.416 1041.01 61.68 1038.66 64.152ZM1021.56 63.036C1023.55 65.22 1026.18 66.312 1029.44 66.312C1032.71 66.312 1035.33 65.22 1037.33 63.036C1039.34 60.852 1040.35 57.96 1040.35 54.36C1040.35 50.76 1039.34 47.868 1037.33 45.684C1035.33 43.5 1032.71 42.408 1029.44 42.408C1026.18 42.408 1023.55 43.5 1021.56 45.684C1019.57 47.868 1018.57 50.76 1018.57 54.36C1018.57 57.96 1019.57 60.852 1021.56 63.036Z" fill="#BF0A36" fill-opacity="0.65"/>
<path d="M918.28 103.814V112.76H916.74V106.348C916.367 106.955 915.998 107.463 915.634 107.874L914.906 106.488C916.381 104.743 917.389 102.615 917.93 100.104L919.358 100.426C919.125 101.667 918.765 102.797 918.28 103.814ZM928.01 102.61H923.852V104.85H927.59V106.11H923.852V108.42H927.59V109.708H923.852V112.76H922.27V102.61H921.808C921.248 103.954 920.567 105.228 919.764 106.432L918.574 105.536C919.722 103.828 920.604 101.971 921.22 99.964L922.648 100.244C922.471 100.813 922.354 101.182 922.298 101.35H928.01V102.61ZM932.77 105.69H931.23V100.468H939.77V105.69H932.77ZM930.908 112.088V112.648H929.41V106.628H934.94V112.648H933.47V112.088H930.908ZM937.53 112.088V112.648H936.06V106.628H941.59V112.648H940.092V112.088H937.53ZM938.23 104.528V101.7H932.77V104.528H938.23ZM933.47 110.94V107.832H930.908V110.94H933.47ZM940.092 110.94V107.832H937.53V110.94H940.092ZM950.13 112.032V112.69H948.688V106.908H955.45V112.69H953.98V112.032H950.13ZM947.05 105.914C946.975 105.625 946.845 105.144 946.658 104.472C946.406 104.892 946.093 105.396 945.72 105.984L947.05 105.914ZM953.532 104.808C953.728 104.808 953.873 104.747 953.966 104.626C954.059 104.505 954.134 104.229 954.19 103.8C954.255 103.371 954.288 102.717 954.288 101.84H952.51C952.333 102.951 951.941 103.926 951.334 104.766C950.727 105.606 949.967 106.231 949.052 106.642L948.31 105.522C949.019 105.186 949.612 104.701 950.088 104.066C950.564 103.422 950.886 102.68 951.054 101.84H948.408V100.58H955.772C955.772 102.223 955.716 103.431 955.604 104.206C955.501 104.981 955.338 105.485 955.114 105.718C954.89 105.951 954.535 106.068 954.05 106.068C953.425 106.068 952.701 106.045 951.88 105.998L951.852 104.752C952.412 104.789 952.972 104.808 953.532 104.808ZM953.98 110.828V108.14H950.13V110.828H953.98ZM942.934 102.82L943.676 101.602C943.788 101.77 943.965 102.041 944.208 102.414C944.581 101.677 944.936 100.879 945.272 100.02L946.448 100.538C945.991 101.602 945.496 102.629 944.964 103.618C945.151 103.917 945.281 104.131 945.356 104.262C945.832 103.478 946.331 102.568 946.854 101.532L947.946 102.12C947.573 102.848 947.199 103.534 946.826 104.178L947.708 103.954C948.063 105.121 948.343 106.269 948.548 107.398L947.442 107.622C947.433 107.557 947.409 107.459 947.372 107.328C947.344 107.197 947.325 107.118 947.316 107.09L946.364 107.146V112.76H944.936V107.244L943.13 107.37L943.088 106.152L944.194 106.082L944.614 105.452C943.867 104.257 943.307 103.38 942.934 102.82ZM943.48 107.958L944.628 108.07C944.544 109.479 944.371 110.814 944.11 112.074L942.962 111.864C943.223 110.529 943.396 109.227 943.48 107.958ZM946.63 108.014L947.75 107.846C947.899 108.798 948.025 109.993 948.128 111.43L946.98 111.542C946.905 110.319 946.789 109.143 946.63 108.014ZM963.5 101.112C961.745 102.755 959.753 104.173 957.522 105.368L956.892 104.122C959.02 102.965 960.915 101.635 962.576 100.132H964.424C966.085 101.635 967.98 102.965 970.108 104.122L969.478 105.368C967.247 104.173 965.255 102.755 963.5 101.112ZM960.21 104.15H961.708V105.452C961.708 106.899 961.601 108.061 961.386 108.938C961.181 109.815 960.84 110.539 960.364 111.108C959.897 111.677 959.216 112.2 958.32 112.676L957.466 111.486C958.203 111.103 958.759 110.693 959.132 110.254C959.505 109.806 959.776 109.213 959.944 108.476C960.121 107.729 960.21 106.721 960.21 105.452V104.15ZM965.488 112.55V104.15H967.028V112.55H965.488Z" fill="#BF0A36" fill-opacity="0.65"/>
<path d="M1089.32 67.5V41.22H1091.37L1106.42 64.764H1106.49V41.22H1108.29V67.5H1106.2L1091.15 43.956H1091.08V67.5H1089.32ZM1116.43 42.768V52.488H1128.78V54H1116.43V65.952H1129.5V67.5H1114.63V41.22H1129.5V42.768H1116.43ZM1135.87 41.22L1141.81 65.664H1141.88L1148.08 41.22H1150.52L1156.72 65.664H1156.79L1162.73 41.22H1164.53L1157.87 67.5H1155.49L1149.3 43.056H1149.23L1143.07 67.5H1140.66L1134.04 41.22H1135.87ZM1175.68 42.408C1173.83 42.408 1172.39 42.816 1171.36 43.632C1170.35 44.424 1169.85 45.54 1169.85 46.98C1169.85 49.62 1171.81 51.54 1175.72 52.74C1178.5 53.58 1180.51 54.636 1181.73 55.908C1182.95 57.18 1183.57 58.824 1183.57 60.84C1183.57 63.096 1182.87 64.836 1181.48 66.06C1180.11 67.26 1178.14 67.86 1175.57 67.86C1172.65 67.86 1170.07 67.056 1167.83 65.448L1168.48 64.008C1170.55 65.544 1172.91 66.312 1175.57 66.312C1177.59 66.312 1179.13 65.844 1180.18 64.908C1181.24 63.972 1181.77 62.616 1181.77 60.84C1181.77 59.232 1181.29 57.936 1180.33 56.952C1179.39 55.944 1177.81 55.092 1175.57 54.396C1170.58 52.908 1168.09 50.436 1168.09 46.98C1168.09 45.132 1168.75 43.656 1170.07 42.552C1171.41 41.424 1173.28 40.86 1175.68 40.86C1178.37 40.86 1180.83 41.436 1183.06 42.588L1182.56 44.028C1180.54 42.948 1178.25 42.408 1175.68 42.408Z" fill="#BF0A36" fill-opacity="0.65"/>
<path d="M1109.68 102.05H1113.04V100.23H1114.44V102.05H1117.73V103.24H1114.44V105.312C1114.78 105.284 1115.13 105.27 1115.49 105.27C1116.88 105.27 1118 105.587 1118.84 106.222C1119.69 106.857 1120.11 107.613 1120.11 108.49C1120.11 109.573 1119.77 110.427 1119.1 111.052C1118.43 111.677 1117.44 112.06 1116.12 112.2L1115.84 110.94C1116.81 110.828 1117.52 110.581 1117.98 110.198C1118.44 109.806 1118.67 109.26 1118.67 108.56C1118.67 108.037 1118.38 107.58 1117.8 107.188C1117.22 106.796 1116.45 106.6 1115.49 106.6C1115.11 106.6 1114.76 106.614 1114.44 106.642V109.89C1114.44 110.674 1114.28 111.22 1113.96 111.528C1113.66 111.836 1113.11 111.99 1112.34 111.99C1111.47 111.99 1110.72 111.71 1110.07 111.15C1109.44 110.581 1109.12 109.904 1109.12 109.12C1109.12 108.317 1109.46 107.589 1110.14 106.936C1110.83 106.273 1111.8 105.802 1113.04 105.522V103.24H1109.68V102.05ZM1118.28 102.288L1119.27 101.504C1120.09 102.484 1120.83 103.506 1121.5 104.57L1120.43 105.256C1119.76 104.192 1119.04 103.203 1118.28 102.288ZM1113.04 106.866C1112.22 107.071 1111.59 107.379 1111.16 107.79C1110.73 108.191 1110.52 108.635 1110.52 109.12C1110.52 109.54 1110.69 109.923 1111.04 110.268C1111.39 110.604 1111.78 110.772 1112.2 110.772C1112.52 110.772 1112.74 110.707 1112.86 110.576C1112.98 110.436 1113.04 110.193 1113.04 109.848V106.866ZM1130.93 110.352H1133.69V102.232H1130.93V110.352ZM1135.13 100.93V112.452H1133.69V111.612H1130.93V112.452H1129.53V100.93H1135.13ZM1122.73 106.432V105.13H1125.64V102.47H1124.76C1124.51 103.263 1124.19 104.043 1123.81 104.808L1122.6 104.332C1123.26 102.969 1123.75 101.457 1124.07 99.796L1125.36 99.992C1125.29 100.44 1125.2 100.846 1125.11 101.21H1128.93V102.47H1127.11V105.13H1129.11V106.432H1127.03C1127.01 106.553 1126.97 106.773 1126.91 107.09C1127.85 108.481 1128.65 109.741 1129.31 110.87L1128.13 111.668C1127.62 110.772 1127.04 109.815 1126.41 108.798C1125.76 110.469 1124.81 111.715 1123.58 112.536L1122.7 111.374C1124.32 110.198 1125.28 108.551 1125.56 106.432H1122.73ZM1138.77 103.436L1140.2 103.562C1140.04 104.747 1139.9 105.737 1139.77 106.53H1139.79C1140.39 106.082 1141.1 105.727 1141.91 105.466C1142.72 105.195 1143.49 105.06 1144.23 105.06C1146.88 105.06 1148.21 106.133 1148.21 108.28C1148.21 109.521 1147.69 110.473 1146.67 111.136C1145.64 111.799 1144.13 112.13 1142.13 112.13C1141.23 112.13 1140.2 112.069 1139.07 111.948L1139.15 110.66C1140.5 110.8 1141.5 110.87 1142.13 110.87C1143.59 110.87 1144.69 110.646 1145.44 110.198C1146.19 109.75 1146.57 109.111 1146.57 108.28C1146.57 106.973 1145.72 106.32 1144.01 106.32C1143.35 106.32 1142.61 106.488 1141.77 106.824C1140.93 107.151 1140.13 107.594 1139.37 108.154L1138.07 107.846C1138.33 106.399 1138.57 104.929 1138.77 103.436ZM1139.93 100.93C1142.11 101.21 1144.26 101.35 1146.39 101.35V102.61C1144.19 102.61 1141.98 102.47 1139.77 102.19L1139.93 100.93ZM1153.15 100.65H1154.55V103.142C1156.77 103.105 1158.44 103.067 1159.55 103.03V100.3H1160.92V102.974C1161.39 102.955 1162.08 102.927 1162.99 102.89L1163.03 104.15C1162.1 104.187 1161.4 104.215 1160.92 104.234V106.572C1160.92 107.3 1160.81 107.795 1160.6 108.056C1160.39 108.317 1160.01 108.448 1159.45 108.448C1159.14 108.448 1158.66 108.387 1158.01 108.266C1157.35 108.145 1156.85 108.019 1156.48 107.888L1156.82 106.6C1157.18 106.712 1157.62 106.824 1158.13 106.936C1158.66 107.039 1159 107.09 1159.17 107.09C1159.36 107.09 1159.46 107.057 1159.49 106.992C1159.53 106.927 1159.55 106.693 1159.55 106.292V104.29C1158.44 104.327 1156.77 104.365 1154.55 104.402V108.7C1154.55 109.185 1154.58 109.559 1154.65 109.82C1154.71 110.072 1154.86 110.282 1155.1 110.45C1155.34 110.609 1155.65 110.711 1156.02 110.758C1156.39 110.805 1156.93 110.828 1157.63 110.828C1159.06 110.828 1160.37 110.739 1161.58 110.562L1161.7 111.85C1160.43 112.037 1159.07 112.13 1157.63 112.13C1156.69 112.13 1155.94 112.083 1155.38 111.99C1154.83 111.897 1154.37 111.715 1154.02 111.444C1153.67 111.173 1153.44 110.828 1153.32 110.408C1153.21 109.988 1153.15 109.419 1153.15 108.7V104.416C1152.9 104.416 1152.53 104.421 1152.04 104.43C1151.56 104.43 1151.19 104.43 1150.95 104.43V103.17C1151.19 103.17 1151.56 103.17 1152.04 103.17C1152.53 103.161 1152.9 103.156 1153.15 103.156V100.65Z" fill="#BF0A36" fill-opacity="0.65"/>
<path d="M1233.16 42.768V52.488H1245.51V54H1233.16V65.952H1246.23V67.5H1231.36V41.22H1246.23V42.768H1233.16ZM1253.04 41.22L1260.49 52.884H1260.56L1267.98 41.22H1270.03L1261.6 54.216L1270.21 67.5H1268.08L1260.49 55.548H1260.42L1252.86 67.5H1250.77L1259.37 54.216L1250.95 41.22H1253.04ZM1276.89 41.22V52.488H1292.01V41.22H1293.81V67.5H1292.01V54H1276.89V67.5H1275.09V41.22H1276.89ZM1301.42 67.5V41.22H1303.33V67.5H1301.42ZM1316.79 42.408C1315.44 42.408 1314.09 42.54 1312.72 42.804V52.488H1316.07C1318.78 52.488 1320.83 52.044 1322.22 51.156C1323.61 50.244 1324.31 48.948 1324.31 47.268C1324.31 44.028 1321.8 42.408 1316.79 42.408ZM1327.37 59.94C1327.37 62.268 1326.58 64.176 1324.99 65.664C1323.43 67.128 1320.82 67.86 1317.15 67.86C1314.84 67.86 1312.77 67.668 1310.92 67.284V41.436C1312.84 41.052 1314.79 40.86 1316.79 40.86C1322.95 40.86 1326.04 42.936 1326.04 47.088C1326.04 48.6 1325.56 49.884 1324.6 50.94C1323.64 51.972 1322.31 52.692 1320.6 53.1V53.172C1322.81 53.532 1324.49 54.288 1325.64 55.44C1326.79 56.592 1327.37 58.092 1327.37 59.94ZM1325.57 59.832C1325.57 57.864 1324.8 56.4 1323.27 55.44C1321.73 54.48 1319.33 54 1316.07 54H1312.72V65.916C1314.18 66.18 1315.66 66.312 1317.15 66.312C1322.76 66.312 1325.57 64.152 1325.57 59.832ZM1333.34 67.5V41.22H1335.25V67.5H1333.34ZM1341.94 41.22H1360.91V42.804H1352.31V67.5H1350.51V42.804H1341.94V41.22ZM1367.62 67.5V41.22H1369.53V67.5H1367.62ZM1397.42 64.152C1395.09 66.624 1392.02 67.86 1388.21 67.86C1384.39 67.86 1381.32 66.624 1378.99 64.152C1376.66 61.68 1375.5 58.416 1375.5 54.36C1375.5 50.304 1376.66 47.04 1378.99 44.568C1381.32 42.096 1384.39 40.86 1388.21 40.86C1392.02 40.86 1395.09 42.096 1397.42 44.568C1399.77 47.04 1400.95 50.304 1400.95 54.36C1400.95 58.416 1399.77 61.68 1397.42 64.152ZM1380.32 63.036C1382.31 65.22 1384.94 66.312 1388.21 66.312C1391.47 66.312 1394.1 65.22 1396.09 63.036C1398.11 60.852 1399.11 57.96 1399.11 54.36C1399.11 50.76 1398.11 47.868 1396.09 45.684C1394.1 43.5 1391.47 42.408 1388.21 42.408C1384.94 42.408 1382.31 43.5 1380.32 45.684C1378.33 47.868 1377.33 50.76 1377.33 54.36C1377.33 57.96 1378.33 60.852 1380.32 63.036ZM1405.66 67.5V41.22H1407.72L1422.76 64.764H1422.84V41.22H1424.64V67.5H1422.55L1407.5 43.956H1407.43V67.5H1405.66Z" fill="#BF0A36" fill-opacity="0.65"/>
<path d="M1302.8 103.8V112.76H1301.37V106.67C1301.18 107.071 1300.95 107.482 1300.69 107.902L1300.11 106.278C1301.14 104.551 1301.84 102.498 1302.21 100.118L1303.53 100.202C1303.35 101.565 1303.11 102.764 1302.8 103.8ZM1305.25 112.172V112.76H1303.81V100.44H1313.16V112.76H1311.69V112.172H1305.25ZM1307.53 109.064H1309.41V107.104H1307.53V109.064ZM1307.53 110.212H1306.16V105.97H1307.77V104.528H1305.71V103.38H1307.77V101.952H1309.17V103.38H1311.23V104.528H1309.17V105.97H1310.78V110.212H1307.53ZM1311.69 110.968V101.672H1305.25V110.968H1311.69ZM1316.97 102.652H1325.03V101.672H1316.97V102.652ZM1318.87 105.97H1317.22V104.808H1318.87V103.772H1316.97V105.732C1316.97 106.32 1316.95 106.843 1316.91 107.3H1318.87V105.97ZM1320.3 104.808H1323.31V103.772H1320.3V104.808ZM1320.3 105.97V107.3H1323.31V105.97H1320.3ZM1322.75 110.618C1322.03 109.946 1321.47 109.237 1321.06 108.49H1319.67V111.15C1320.58 111.019 1321.61 110.842 1322.75 110.618ZM1323.83 109.848C1324.41 109.475 1324.99 109.022 1325.56 108.49H1322.68C1322.99 108.985 1323.37 109.437 1323.83 109.848ZM1315.54 100.51H1326.53V103.772H1324.78V104.808H1326.46V105.97H1324.78V107.3H1327.05V108.49H1325.83L1326.75 109.134C1326.19 109.666 1325.56 110.161 1324.86 110.618C1325.53 111.029 1326.3 111.369 1327.19 111.64L1326.54 112.788C1325.23 112.405 1324.03 111.743 1322.95 110.8L1323.09 111.738C1320.84 112.214 1318.63 112.541 1316.46 112.718L1316.31 111.528C1317.18 111.453 1317.8 111.393 1318.17 111.346V108.49H1316.77C1316.52 110.095 1316.07 111.467 1315.43 112.606L1314.35 111.444C1315.14 109.745 1315.54 107.533 1315.54 104.808V100.51ZM1334.82 102.848H1339.37V101.952H1335.36C1335.21 102.232 1335.02 102.531 1334.82 102.848ZM1333.07 102.848C1333.41 102.4 1333.63 102.101 1333.73 101.952H1330.63V102.848H1333.07ZM1335.36 105.368C1336.05 105.013 1336.63 104.584 1337.09 104.08H1333.85C1333.65 104.313 1333.4 104.565 1333.11 104.836C1334.02 105.032 1334.77 105.209 1335.36 105.368ZM1334.23 107.272H1335.77V108.112H1339.79C1338.15 107.44 1336.73 106.931 1335.53 106.586C1334.16 107.193 1332.22 107.641 1329.72 107.93L1329.39 106.81C1331.08 106.623 1332.47 106.376 1333.54 106.068C1333.17 105.984 1332.67 105.881 1332.03 105.76L1331.57 106.096L1330.35 105.424C1331 104.948 1331.53 104.5 1331.96 104.08H1328.91V102.848H1329.15V100.86H1334.23V99.67H1335.77V100.86H1340.85V102.848H1341.09V104.08H1338.67C1338.19 104.752 1337.61 105.331 1336.92 105.816C1338.08 106.171 1339.32 106.633 1340.66 107.202L1340 108.112H1341.13V109.33H1336.74C1337.94 110.123 1339.54 110.837 1341.54 111.472L1340.99 112.69C1338.85 111.906 1337.1 110.991 1335.77 109.946V112.76H1334.23V109.946C1332.9 110.991 1331.15 111.906 1329.01 112.69L1328.46 111.472C1330.46 110.837 1332.06 110.123 1333.26 109.33H1328.87V108.112H1334.23V107.272ZM1344.66 107.384C1345.77 106.824 1346.61 106.175 1347.17 105.438C1347.73 104.701 1348.06 103.805 1348.16 102.75H1344.66V107.384ZM1349.39 104.164C1350.87 105.153 1352.18 106.376 1353.34 107.832V102.75H1349.66C1349.61 103.263 1349.52 103.735 1349.39 104.164ZM1348.19 99.95H1349.7V101.448H1354.85V110.38C1354.85 111.304 1354.74 111.873 1354.53 112.088C1354.32 112.303 1353.76 112.41 1352.85 112.41C1352.69 112.41 1351.94 112.387 1350.61 112.34L1350.54 111.052C1351.54 111.089 1352.22 111.108 1352.57 111.108C1352.95 111.108 1353.18 111.08 1353.24 111.024C1353.31 110.959 1353.34 110.744 1353.34 110.38V108.07L1352.28 108.784C1351.17 107.347 1350.04 106.222 1348.87 105.41C1348.17 106.707 1346.99 107.799 1345.32 108.686L1344.66 107.86V112.452H1343.15V101.448H1348.19V99.95Z" fill="#BF0A36" fill-opacity="0.65"/>
<path d="M1475.48 41.22V65.916H1489.09V67.5H1473.61V41.22H1475.48ZM1513.03 64.152C1510.71 66.624 1507.63 67.86 1503.82 67.86C1500 67.86 1496.93 66.624 1494.6 64.152C1492.27 61.68 1491.11 58.416 1491.11 54.36C1491.11 50.304 1492.27 47.04 1494.6 44.568C1496.93 42.096 1500 40.86 1503.82 40.86C1507.63 40.86 1510.71 42.096 1513.03 44.568C1515.39 47.04 1516.56 50.304 1516.56 54.36C1516.56 58.416 1515.39 61.68 1513.03 64.152ZM1495.93 63.036C1497.93 65.22 1500.55 66.312 1503.82 66.312C1507.08 66.312 1509.71 65.22 1511.7 63.036C1513.72 60.852 1514.73 57.96 1514.73 54.36C1514.73 50.76 1513.72 47.868 1511.7 45.684C1509.71 43.5 1507.08 42.408 1503.82 42.408C1500.55 42.408 1497.93 43.5 1495.93 45.684C1493.94 47.868 1492.95 50.76 1492.95 54.36C1492.95 57.96 1493.94 60.852 1495.93 63.036ZM1532.97 42.408C1529.56 42.408 1526.85 43.488 1524.83 45.648C1522.84 47.808 1521.84 50.712 1521.84 54.36C1521.84 57.984 1522.86 60.888 1524.9 63.072C1526.94 65.232 1529.63 66.312 1532.97 66.312C1535.58 66.312 1538 65.592 1540.2 64.152L1540.89 65.556C1538.61 67.092 1535.93 67.86 1532.86 67.86C1528.97 67.86 1525.85 66.636 1523.5 64.188C1521.17 61.74 1520.01 58.464 1520.01 54.36C1520.01 50.208 1521.16 46.92 1523.46 44.496C1525.79 42.072 1528.92 40.86 1532.86 40.86C1535.93 40.86 1538.61 41.628 1540.89 43.164L1540.2 44.568C1538.04 43.128 1535.63 42.408 1532.97 42.408ZM1544.19 67.5L1554.02 41.22H1556.18L1566.04 67.5H1564.1L1561.08 59.184H1549.09L1546.06 67.5H1544.19ZM1549.66 57.672H1560.54L1555.14 42.804H1555.06L1549.66 57.672ZM1565.69 41.22H1584.67V42.804H1576.06V67.5H1574.26V42.804H1565.69V41.22ZM1591.37 67.5V41.22H1593.28V67.5H1591.37ZM1621.18 64.152C1618.85 66.624 1615.78 67.86 1611.96 67.86C1608.14 67.86 1605.07 66.624 1602.74 64.152C1600.42 61.68 1599.25 58.416 1599.25 54.36C1599.25 50.304 1600.42 47.04 1602.74 44.568C1605.07 42.096 1608.14 40.86 1611.96 40.86C1615.78 40.86 1618.85 42.096 1621.18 44.568C1623.53 47.04 1624.7 50.304 1624.7 54.36C1624.7 58.416 1623.53 61.68 1621.18 64.152ZM1604.08 63.036C1606.07 65.22 1608.7 66.312 1611.96 66.312C1615.22 66.312 1617.85 65.22 1619.84 63.036C1621.86 60.852 1622.87 57.96 1622.87 54.36C1622.87 50.76 1621.86 47.868 1619.84 45.684C1617.85 43.5 1615.22 42.408 1611.96 42.408C1608.7 42.408 1606.07 43.5 1604.08 45.684C1602.08 47.868 1601.09 50.76 1601.09 54.36C1601.09 57.96 1602.08 60.852 1604.08 63.036ZM1629.42 67.5V41.22H1631.47L1646.52 64.764H1646.59V41.22H1648.39V67.5H1646.3L1631.25 43.956H1631.18V67.5H1629.42Z" fill="#BF0A36" fill-opacity="0.65"/>
<path d="M1535.97 102.652H1544.03V101.672H1535.97V102.652ZM1537.87 105.97H1536.22V104.808H1537.87V103.772H1535.97V105.732C1535.97 106.32 1535.95 106.843 1535.91 107.3H1537.87V105.97ZM1539.3 104.808H1542.31V103.772H1539.3V104.808ZM1539.3 105.97V107.3H1542.31V105.97H1539.3ZM1541.75 110.618C1541.03 109.946 1540.47 109.237 1540.06 108.49H1538.67V111.15C1539.58 111.019 1540.61 110.842 1541.75 110.618ZM1542.83 109.848C1543.41 109.475 1543.99 109.022 1544.56 108.49H1541.68C1541.99 108.985 1542.37 109.437 1542.83 109.848ZM1534.54 100.51H1545.53V103.772H1543.78V104.808H1545.46V105.97H1543.78V107.3H1546.05V108.49H1544.83L1545.75 109.134C1545.19 109.666 1544.56 110.161 1543.86 110.618C1544.53 111.029 1545.3 111.369 1546.19 111.64L1545.54 112.788C1544.23 112.405 1543.03 111.743 1541.95 110.8L1542.09 111.738C1539.84 112.214 1537.63 112.541 1535.46 112.718L1535.31 111.528C1536.18 111.453 1536.8 111.393 1537.17 111.346V108.49H1535.77C1535.52 110.095 1535.07 111.467 1534.43 112.606L1533.35 111.444C1534.14 109.745 1534.54 107.533 1534.54 104.808V100.51ZM1548.96 101.91V100.608H1559.04V101.91H1548.96ZM1560.16 104.01V105.312H1554.98V110.45C1554.98 111.374 1554.87 111.943 1554.66 112.158C1554.45 112.373 1553.9 112.48 1552.99 112.48C1552.45 112.48 1551.74 112.457 1550.85 112.41L1550.78 111.08C1551.88 111.127 1552.53 111.15 1552.74 111.15C1553.08 111.15 1553.28 111.117 1553.34 111.052C1553.41 110.977 1553.44 110.763 1553.44 110.408V105.312H1547.84V104.01H1560.16ZM1547.69 110.758C1548.63 109.395 1549.36 107.911 1549.87 106.306L1551.23 106.754C1550.72 108.443 1549.96 109.993 1548.95 111.402L1547.69 110.758ZM1559.01 111.5C1558.3 109.876 1557.49 108.336 1556.56 106.88L1557.84 106.25C1558.83 107.827 1559.67 109.381 1560.33 110.912L1559.01 111.5ZM1565.87 110.87H1572.03V108.168H1565.87V110.87ZM1569.05 101.28H1574.02V102.512H1569.4V104.052H1573.88V105.27H1569.4V106.95H1573.53V112.76H1572.03V112.06H1565.87V112.76H1564.36V106.95H1567.89V102.512H1564.05V105.76C1564.05 108.672 1563.55 110.968 1562.54 112.648L1561.42 111.472C1562.19 109.988 1562.57 107.757 1562.57 104.78V101.28H1567.51V99.852H1569.05V101.28ZM1579.62 109.148H1577.17V110.912H1579.62V109.148ZM1585.61 107.048V108.588H1586.9V107.048H1585.61ZM1585.61 105.97H1586.9V104.57H1585.61V105.97ZM1584.24 107.048H1582.95V108.588H1584.24V107.048ZM1584.24 105.97V104.57H1582.95V105.97H1584.24ZM1581.19 107.132H1575.53V105.97H1577.77V104.71H1576.19V103.73C1576.05 103.861 1575.86 104.024 1575.63 104.22L1575.31 102.708C1576.23 101.915 1577.04 101.056 1577.73 100.132H1579.31C1580.03 100.888 1580.75 101.541 1581.47 102.092V101.112H1584.24V99.992H1585.61V101.112H1586.62C1586.25 100.645 1585.99 100.328 1585.85 100.16L1587.04 99.81C1587.28 100.099 1587.63 100.533 1588.09 101.112H1588.55V102.33H1585.61V103.408H1588.3V110.772C1588.3 111.397 1588.27 111.836 1588.2 112.088C1588.15 112.349 1588.04 112.522 1587.88 112.606C1587.73 112.69 1587.46 112.732 1587.07 112.732C1586.83 112.732 1586.52 112.718 1586.13 112.69L1586.03 111.5C1586.19 111.519 1586.39 111.528 1586.62 111.528C1586.75 111.528 1586.83 111.5 1586.86 111.444C1586.89 111.388 1586.9 111.197 1586.9 110.87V109.68H1585.61V112.41H1584.24V109.68H1582.95V112.76H1581.58V103.408H1584.24V102.33H1581.79L1581.19 103.59C1580.24 102.843 1579.35 102.003 1578.53 101.07C1577.87 101.994 1577.14 102.834 1576.34 103.59H1577.77V102.288H1579.17V103.59H1580.81V104.71H1579.17V105.97H1581.19V107.132ZM1575.77 108.028H1580.99V109.148V112.69H1579.62V112.032H1577.17V112.69H1575.77V108.028Z" fill="#BF0A36" fill-opacity="0.65"/>
<path d="M1708.62 42.408C1705.21 42.408 1702.5 43.488 1700.48 45.648C1698.49 47.808 1697.49 50.712 1697.49 54.36C1697.49 57.984 1698.51 60.888 1700.55 63.072C1702.59 65.232 1705.28 66.312 1708.62 66.312C1711.23 66.312 1713.64 65.592 1715.85 64.152L1716.54 65.556C1714.26 67.092 1711.58 67.86 1708.51 67.86C1704.62 67.86 1701.5 66.636 1699.15 64.188C1696.82 61.74 1695.66 58.464 1695.66 54.36C1695.66 50.208 1696.81 46.92 1699.11 44.496C1701.44 42.072 1704.57 40.86 1708.51 40.86C1711.58 40.86 1714.26 41.628 1716.54 43.164L1715.85 44.568C1713.69 43.128 1711.28 42.408 1708.62 42.408ZM1741.77 64.152C1739.44 66.624 1736.37 67.86 1732.55 67.86C1728.73 67.86 1725.66 66.624 1723.33 64.152C1721.01 61.68 1719.84 58.416 1719.84 54.36C1719.84 50.304 1721.01 47.04 1723.33 44.568C1725.66 42.096 1728.73 40.86 1732.55 40.86C1736.37 40.86 1739.44 42.096 1741.77 44.568C1744.12 47.04 1745.29 50.304 1745.29 54.36C1745.29 58.416 1744.12 61.68 1741.77 64.152ZM1724.67 63.036C1726.66 65.22 1729.29 66.312 1732.55 66.312C1735.81 66.312 1738.44 65.22 1740.43 63.036C1742.45 60.852 1743.46 57.96 1743.46 54.36C1743.46 50.76 1742.45 47.868 1740.43 45.684C1738.44 43.5 1735.81 42.408 1732.55 42.408C1729.29 42.408 1726.66 43.5 1724.67 45.684C1722.67 47.868 1721.68 50.76 1721.68 54.36C1721.68 57.96 1722.67 60.852 1724.67 63.036ZM1750.01 67.5V41.22H1752.06L1767.11 64.764H1767.18V41.22H1768.98V67.5H1766.89L1751.85 43.956H1751.77V67.5H1750.01ZM1774.42 41.22H1793.39V42.804H1784.79V67.5H1782.99V42.804H1774.42V41.22ZM1793.07 67.5L1802.9 41.22H1805.06L1814.92 67.5H1812.98L1809.95 59.184H1797.97L1794.94 67.5H1793.07ZM1798.54 57.672H1809.41L1804.01 42.804H1803.94L1798.54 57.672ZM1829.69 42.408C1826.29 42.408 1823.57 43.488 1821.56 45.648C1819.57 47.808 1818.57 50.712 1818.57 54.36C1818.57 57.984 1819.59 60.888 1821.63 63.072C1823.67 65.232 1826.36 66.312 1829.69 66.312C1832.31 66.312 1834.72 65.592 1836.93 64.152L1837.61 65.556C1835.33 67.092 1832.66 67.86 1829.59 67.86C1825.7 67.86 1822.58 66.636 1820.23 64.188C1817.9 61.74 1816.73 58.464 1816.73 54.36C1816.73 50.208 1817.89 46.92 1820.19 44.496C1822.52 42.072 1825.65 40.86 1829.59 40.86C1832.66 40.86 1835.33 41.628 1837.61 43.164L1836.93 44.568C1834.77 43.128 1832.36 42.408 1829.69 42.408ZM1841.64 41.22H1860.61V42.804H1852.01V67.5H1850.21V42.804H1841.64V41.22Z" fill="#BF0A36" fill-opacity="0.65"/>
<path d="M1738.18 102.05H1741.54V100.23H1742.94V102.05H1746.23V103.24H1742.94V105.312C1743.28 105.284 1743.63 105.27 1743.99 105.27C1745.38 105.27 1746.5 105.587 1747.34 106.222C1748.19 106.857 1748.61 107.613 1748.61 108.49C1748.61 109.573 1748.27 110.427 1747.6 111.052C1746.93 111.677 1745.94 112.06 1744.62 112.2L1744.34 110.94C1745.31 110.828 1746.02 110.581 1746.48 110.198C1746.94 109.806 1747.17 109.26 1747.17 108.56C1747.17 108.037 1746.88 107.58 1746.3 107.188C1745.72 106.796 1744.95 106.6 1743.99 106.6C1743.61 106.6 1743.26 106.614 1742.94 106.642V109.89C1742.94 110.674 1742.78 111.22 1742.46 111.528C1742.16 111.836 1741.61 111.99 1740.84 111.99C1739.97 111.99 1739.22 111.71 1738.57 111.15C1737.94 110.581 1737.62 109.904 1737.62 109.12C1737.62 108.317 1737.96 107.589 1738.64 106.936C1739.33 106.273 1740.3 105.802 1741.54 105.522V103.24H1738.18V102.05ZM1746.78 102.288L1747.77 101.504C1748.59 102.484 1749.33 103.506 1750 104.57L1748.93 105.256C1748.26 104.192 1747.54 103.203 1746.78 102.288ZM1741.54 106.866C1740.72 107.071 1740.09 107.379 1739.66 107.79C1739.23 108.191 1739.02 108.635 1739.02 109.12C1739.02 109.54 1739.19 109.923 1739.54 110.268C1739.89 110.604 1740.28 110.772 1740.7 110.772C1741.02 110.772 1741.24 110.707 1741.36 110.576C1741.48 110.436 1741.54 110.193 1741.54 109.848V106.866ZM1752.91 103.632V104.64H1755.61V103.632H1752.91ZM1752.91 102.652H1755.61V101.63H1752.91V102.652ZM1762.09 103.632H1759.25V104.64H1762.09V103.632ZM1762.09 102.652V101.63H1759.25V102.652H1762.09ZM1755.93 111.01V111.71H1754.49V106.628H1760.51V111.01H1755.93ZM1751.45 112.648V100.44H1757.05V105.69H1752.91V112.648H1751.45ZM1761.56 112.592C1761.47 112.592 1761.34 112.587 1761.18 112.578C1761.03 112.569 1760.81 112.555 1760.52 112.536C1760.24 112.527 1759.98 112.517 1759.74 112.508L1759.67 111.248C1759.89 111.257 1760.14 111.271 1760.4 111.29C1760.66 111.299 1760.86 111.309 1761 111.318C1761.14 111.327 1761.24 111.332 1761.31 111.332C1761.68 111.332 1761.91 111.299 1761.98 111.234C1762.05 111.159 1762.09 110.945 1762.09 110.59V105.69H1757.81V100.44H1763.55V110.548C1763.55 111.472 1763.44 112.041 1763.23 112.256C1763.02 112.48 1762.47 112.592 1761.56 112.592ZM1759.07 107.79H1755.93V109.848H1759.07V107.79ZM1774.03 102.092L1775.38 101.672C1776 102.885 1776.48 104.267 1776.81 105.816C1777.14 107.356 1777.31 108.947 1777.31 110.59H1775.84C1775.84 109.069 1775.68 107.566 1775.36 106.082C1775.05 104.598 1774.6 103.268 1774.03 102.092ZM1768.14 101.924C1767.72 103.399 1767.51 104.957 1767.51 106.6C1767.51 107.72 1767.7 108.667 1768.08 109.442C1768.47 110.207 1768.85 110.59 1769.23 110.59C1769.49 110.59 1769.83 110.305 1770.25 109.736C1770.67 109.167 1771.09 108.355 1771.5 107.3L1772.83 107.818C1772.36 109.143 1771.78 110.184 1771.08 110.94C1770.39 111.687 1769.74 112.06 1769.12 112.06C1768.35 112.06 1767.65 111.528 1767.01 110.464C1766.36 109.4 1766.04 108.112 1766.04 106.6C1766.04 104.855 1766.26 103.24 1766.71 101.756L1768.14 101.924ZM1782.11 112.032V112.732H1780.6V106.74H1790.4V112.732H1788.89V112.032H1782.11ZM1781.94 104.052H1789.06C1787.81 103.221 1786.63 102.241 1785.5 101.112C1784.37 102.241 1783.19 103.221 1781.94 104.052ZM1788.89 110.828V107.972H1782.11V110.828H1788.89ZM1779.1 104.122C1781.19 102.983 1783.02 101.653 1784.58 100.132H1786.42C1787.98 101.653 1789.81 102.983 1791.9 104.122L1791.27 105.368C1790.53 104.967 1789.91 104.607 1789.42 104.29V105.27H1781.58V104.29C1781.09 104.607 1780.47 104.967 1779.73 105.368L1779.1 104.122ZM1793.55 102.61H1796.42V100.44H1797.75V103.954C1798.57 103.217 1799.29 102.703 1799.92 102.414C1800.55 102.125 1801.18 101.98 1801.81 101.98C1803.02 101.98 1803.92 102.377 1804.5 103.17C1805.09 103.963 1805.38 105.223 1805.38 106.95C1805.38 108.453 1805.03 109.624 1804.32 110.464C1803.61 111.295 1802.65 111.71 1801.46 111.71C1800.66 111.71 1799.91 111.533 1799.22 111.178L1799.67 109.932C1800.3 110.212 1800.9 110.352 1801.46 110.352C1802.23 110.352 1802.84 110.063 1803.28 109.484C1803.73 108.896 1803.95 108.051 1803.95 106.95C1803.95 105.643 1803.78 104.719 1803.43 104.178C1803.09 103.627 1802.52 103.352 1801.74 103.352C1801.23 103.352 1800.66 103.534 1800.05 103.898C1799.43 104.253 1798.66 104.892 1797.75 105.816V112.34H1796.42V107.23C1795.78 107.949 1795.05 108.803 1794.24 109.792L1793.26 108.896C1794.54 107.319 1795.6 106.105 1796.42 105.256V103.8H1793.55V102.61ZM1809.65 100.65H1811.05V103.142C1813.27 103.105 1814.94 103.067 1816.05 103.03V100.3H1817.42V102.974C1817.89 102.955 1818.58 102.927 1819.49 102.89L1819.53 104.15C1818.6 104.187 1817.9 104.215 1817.42 104.234V106.572C1817.42 107.3 1817.31 107.795 1817.1 108.056C1816.89 108.317 1816.51 108.448 1815.95 108.448C1815.64 108.448 1815.16 108.387 1814.51 108.266C1813.85 108.145 1813.35 108.019 1812.98 107.888L1813.32 106.6C1813.68 106.712 1814.12 106.824 1814.63 106.936C1815.16 107.039 1815.5 107.09 1815.67 107.09C1815.86 107.09 1815.96 107.057 1815.99 106.992C1816.03 106.927 1816.05 106.693 1816.05 106.292V104.29C1814.94 104.327 1813.27 104.365 1811.05 104.402V108.7C1811.05 109.185 1811.08 109.559 1811.15 109.82C1811.21 110.072 1811.36 110.282 1811.6 110.45C1811.84 110.609 1812.15 110.711 1812.52 110.758C1812.89 110.805 1813.43 110.828 1814.13 110.828C1815.56 110.828 1816.87 110.739 1818.08 110.562L1818.2 111.85C1816.93 112.037 1815.57 112.13 1814.13 112.13C1813.19 112.13 1812.44 112.083 1811.88 111.99C1811.33 111.897 1810.87 111.715 1810.52 111.444C1810.17 111.173 1809.94 110.828 1809.82 110.408C1809.71 109.988 1809.65 109.419 1809.65 108.7V104.416C1809.4 104.416 1809.03 104.421 1808.54 104.43C1808.06 104.43 1807.69 104.43 1807.45 104.43V103.17C1807.69 103.17 1808.06 103.17 1808.54 103.17C1809.03 103.161 1809.4 103.156 1809.65 103.156V100.65Z" fill="#BF0A36" fill-opacity="0.65"/>
<rect x="147" width="407" height="139" rx="69.5" fill="#BF0A36" fill-opacity="0.65"/>
<rect width="228" height="139" rx="69.5" fill="#BF0A36" fill-opacity="0.65"/>
<path d="M28.8324 59H37.2804V64.12H28.8324V79.48C28.8324 82.2106 29.0457 84.0666 29.4724 85.048C29.8991 86.0293 30.6884 86.52 31.8404 86.52C33.2484 86.52 34.6991 86.136 36.1924 85.368L37.1524 90.36C35.1044 91.2133 33.0991 91.64 31.1364 91.64C28.4057 91.64 26.4217 90.808 25.1844 89.144C23.9471 87.48 23.3284 84.6853 23.3284 80.76V64.12H18.4004V59H23.3284V46.84H28.8324V59Z" fill="white"/>
<path d="M66.3094 57.08C71.7281 57.08 74.4374 61.9866 74.4374 71.8V91H69.0614V72.44C69.0614 68.5573 68.7414 65.912 68.1014 64.504C67.4614 63.0533 66.3521 62.328 64.7734 62.328C63.4081 62.328 62.1494 63.4586 60.9974 65.72C59.8454 67.9386 59.2694 70.392 59.2694 73.08V91H53.8294V43H59.2694V61.112C61.1894 58.424 63.5361 57.08 66.3094 57.08Z" fill="white"/>
<path d="M94.4699 71.928H105.99C105.99 68.7706 105.478 66.3386 104.454 64.632C103.43 62.9253 102.043 62.072 100.294 62.072C98.5872 62.072 97.2006 62.9466 96.1339 64.696C95.0672 66.4026 94.5126 68.8133 94.4699 71.928ZM94.4699 76.92C94.5552 79.864 95.2379 82.232 96.5179 84.024C97.8406 85.7733 99.4192 86.648 101.254 86.648C103.387 86.648 105.734 85.8373 108.294 84.216L109.638 89.08C106.779 90.7866 103.835 91.64 100.806 91.64C97.3072 91.64 94.4486 90.0826 92.2299 86.968C90.0539 83.8106 88.9659 79.608 88.9659 74.36C88.9659 68.984 89.9899 64.76 92.0379 61.688C94.0859 58.616 96.8592 57.08 100.358 57.08C103.814 57.08 106.502 58.5306 108.422 61.432C110.385 64.3333 111.366 68.536 111.366 74.04C111.366 74.68 111.323 75.64 111.238 76.92H94.4699Z" fill="white"/>
<path d="M123.309 100.92V95.8H151.085V100.92H123.309Z" fill="white"/>
<path d="M163.74 91V44.28H170.012V91H163.74Z" fill="white"/>
<path d="M214.236 67C214.236 75.1066 212.722 81.2506 209.692 85.432C206.706 89.5706 202.418 91.64 196.828 91.64C193.714 91.64 190.684 91.32 187.74 90.68V44.6C190.642 43.9173 193.671 43.5973 196.828 43.64C202.418 43.64 206.706 45.6666 209.692 49.72C212.722 53.7306 214.236 59.4906 214.236 67ZM208.476 67C208.476 61.1973 207.474 56.824 205.468 53.88C203.506 50.8933 200.626 49.4 196.828 49.4C195.506 49.4 194.46 49.5493 193.692 49.848V85.432C194.46 85.7306 195.506 85.88 196.828 85.88C200.796 85.88 203.719 84.344 205.596 81.272C207.516 78.1573 208.476 73.4 208.476 67Z" fill="white"/>
<path d="M233.977 71.288C233.977 82.936 237.049 92.8133 243.193 100.92H237.433C234.532 97.1653 232.271 92.728 230.649 87.608C229.071 82.488 228.281 77.048 228.281 71.288C228.281 65.528 229.071 60.1093 230.649 55.032C232.271 49.912 234.532 45.4746 237.433 41.72H243.193C237.049 49.784 233.977 59.64 233.977 71.288Z" fill="white"/>
<path d="M252.357 41.72H258.117C261.061 45.4746 263.322 49.912 264.901 55.032C266.48 60.1093 267.269 65.528 267.269 71.288C267.269 77.048 266.48 82.488 264.901 87.608C263.322 92.728 261.061 97.1653 258.117 100.92H252.357C258.501 92.856 261.573 82.9786 261.573 71.288C261.573 59.5973 258.501 49.7413 252.357 41.72Z" fill="white"/>
<path d="M301.834 44.28H322.058V50.04H307.786V63.992H321.162V69.496H307.786V91H301.834V44.28Z" fill="white"/>
<path d="M337.424 91V43H343.056V91H337.424Z" fill="white"/>
<path d="M360.356 61.752C362.49 58.6373 365.327 57.08 368.868 57.08C372.41 57.08 375.247 58.6373 377.38 61.752C379.514 64.8666 380.58 69.0693 380.58 74.36C380.58 79.6506 379.514 83.8533 377.38 86.968C375.247 90.0826 372.41 91.64 368.868 91.64C365.327 91.64 362.49 90.0826 360.356 86.968C358.223 83.8533 357.156 79.6506 357.156 74.36C357.156 69.0693 358.223 64.8666 360.356 61.752ZM364.516 83.32C365.583 85.4533 367.034 86.52 368.868 86.52C370.703 86.52 372.175 85.4533 373.284 83.32C374.394 81.1866 374.948 78.2 374.948 74.36C374.948 70.52 374.394 67.5333 373.284 65.4C372.175 63.2666 370.703 62.2 368.868 62.2C367.034 62.2 365.54 63.2666 364.388 65.4C363.279 67.5333 362.724 70.52 362.724 74.36C362.767 78.2 363.364 81.1866 364.516 83.32Z" fill="white"/>
<path d="M402.418 57.72L406.258 82.68L409.842 57.72H416.946L420.594 82.552L424.37 57.72H430.258L423.794 91H416.882L413.298 64.12L409.778 91H402.802L396.402 57.72H402.418Z" fill="white"/>
<path d="M451.407 71.928H462.927C462.927 68.7706 462.415 66.3386 461.391 64.632C460.367 62.9253 458.981 62.072 457.231 62.072C455.525 62.072 454.138 62.9466 453.071 64.696C452.005 66.4026 451.45 68.8133 451.407 71.928ZM451.407 76.92C451.493 79.864 452.175 82.232 453.455 84.024C454.778 85.7733 456.357 86.648 458.191 86.648C460.325 86.648 462.671 85.8373 465.231 84.216L466.575 89.08C463.717 90.7866 460.773 91.64 457.743 91.64C454.245 91.64 451.386 90.0826 449.167 86.968C446.991 83.8106 445.903 79.608 445.903 74.36C445.903 68.984 446.927 64.76 448.975 61.688C451.023 58.616 453.797 57.08 457.295 57.08C460.751 57.08 463.439 58.5306 465.359 61.432C467.322 64.3333 468.303 68.536 468.303 74.04C468.303 74.68 468.261 75.64 468.175 76.92H451.407Z" fill="white"/>
<path d="M498.615 57.08V62.456C495.159 62.456 492.514 63.736 490.679 66.296C488.887 68.8133 487.991 72.1413 487.991 76.28V91H482.487V57.72H487.799L487.863 63.032C490.551 59.064 494.135 57.08 498.615 57.08Z" fill="white"/>
<path d="M520.816 62.2C518.171 62.2 516.848 63.5866 516.848 66.36C516.848 67.6826 517.168 68.728 517.808 69.496C518.448 70.2213 519.557 70.776 521.136 71.16C524.421 71.8426 526.747 73.0586 528.112 74.808C529.52 76.5146 530.224 78.9253 530.224 82.04C530.224 84.984 529.371 87.3306 527.664 89.08C526 90.7866 523.717 91.64 520.816 91.64C517.403 91.64 514.245 90.5733 511.344 88.44L512.496 83.32C515.227 85.4533 517.936 86.52 520.624 86.52C523.312 86.52 524.656 85.0266 524.656 82.04C524.656 80.5893 524.357 79.48 523.76 78.712C523.163 77.9013 522.075 77.304 520.496 76.92C517.296 76.152 514.971 74.936 513.52 73.272C512.069 71.608 511.344 69.304 511.344 66.36C511.344 63.544 512.176 61.304 513.84 59.64C515.547 57.9333 517.872 57.08 520.816 57.08C523.845 57.08 526.704 57.9333 529.392 59.64L528.304 64.76C525.744 63.0533 523.248 62.2 520.816 62.2Z" fill="white"/>
</svg>
