<svg width="604" height="189" viewBox="0 0 604 189" fill="none" xmlns="http://www.w3.org/2000/svg">
<rect x="159.5" y="12.5" width="432" height="164" rx="82" fill="white" stroke="white" stroke-width="25"/>
<rect x="12.5" y="12.5" width="253" height="164" rx="82" fill="white" stroke="white" stroke-width="25"/>
<rect x="172" y="25" width="407" height="139" rx="69.5" fill="#BF0A36" fill-opacity="0.65"/>
<rect x="25" y="25" width="228" height="139" rx="69.5" fill="#BF0A36" fill-opacity="0.65"/>
<path d="M53.8324 84H62.2804V89.12H53.8324V104.48C53.8324 107.211 54.0457 109.067 54.4724 110.048C54.8991 111.029 55.6884 111.52 56.8404 111.52C58.2484 111.52 59.6991 111.136 61.1924 110.368L62.1524 115.36C60.1044 116.213 58.0991 116.64 56.1364 116.64C53.4057 116.64 51.4217 115.808 50.1844 114.144C48.9471 112.48 48.3284 109.685 48.3284 105.76V89.12H43.4004V84H48.3284V71.84H53.8324V84Z" fill="white"/>
<path d="M91.3094 82.08C96.7281 82.08 99.4374 86.9866 99.4374 96.8V116H94.0614V97.44C94.0614 93.5573 93.7414 90.912 93.1014 89.504C92.4614 88.0533 91.3521 87.328 89.7734 87.328C88.4081 87.328 87.1494 88.4586 85.9974 90.72C84.8454 92.9386 84.2694 95.392 84.2694 98.08V116H78.8294V68H84.2694V86.112C86.1894 83.424 88.5361 82.08 91.3094 82.08Z" fill="white"/>
<path d="M119.47 96.928H130.99C130.99 93.7706 130.478 91.3386 129.454 89.632C128.43 87.9253 127.043 87.072 125.294 87.072C123.587 87.072 122.201 87.9466 121.134 89.696C120.067 91.4026 119.513 93.8133 119.47 96.928ZM119.47 101.92C119.555 104.864 120.238 107.232 121.518 109.024C122.841 110.773 124.419 111.648 126.254 111.648C128.387 111.648 130.734 110.837 133.294 109.216L134.638 114.08C131.779 115.787 128.835 116.64 125.806 116.64C122.307 116.64 119.449 115.083 117.23 111.968C115.054 108.811 113.966 104.608 113.966 99.36C113.966 93.984 114.99 89.76 117.038 86.688C119.086 83.616 121.859 82.08 125.358 82.08C128.814 82.08 131.502 83.5306 133.422 86.432C135.385 89.3333 136.366 93.536 136.366 99.04C136.366 99.68 136.323 100.64 136.238 101.92H119.47Z" fill="white"/>
<path d="M148.309 125.92V120.8H176.085V125.92H148.309Z" fill="white"/>
<path d="M188.74 116V69.28H195.012V116H188.74Z" fill="white"/>
<path d="M239.236 92C239.236 100.107 237.722 106.251 234.692 110.432C231.706 114.571 227.418 116.64 221.828 116.64C218.714 116.64 215.684 116.32 212.74 115.68V69.6C215.642 68.9173 218.671 68.5973 221.828 68.64C227.418 68.64 231.706 70.6666 234.692 74.72C237.722 78.7306 239.236 84.4906 239.236 92ZM233.476 92C233.476 86.1973 232.474 81.824 230.468 78.88C228.506 75.8933 225.626 74.4 221.828 74.4C220.506 74.4 219.46 74.5493 218.692 74.848V110.432C219.46 110.731 220.506 110.88 221.828 110.88C225.796 110.88 228.719 109.344 230.596 106.272C232.516 103.157 233.476 98.4 233.476 92Z" fill="white"/>
<path d="M258.977 96.288C258.977 107.936 262.049 117.813 268.193 125.92H262.433C259.532 122.165 257.271 117.728 255.649 112.608C254.071 107.488 253.281 102.048 253.281 96.288C253.281 90.528 254.071 85.1093 255.649 80.032C257.271 74.912 259.532 70.4746 262.433 66.72H268.193C262.049 74.784 258.977 84.64 258.977 96.288Z" fill="white"/>
<path d="M277.357 66.72H283.117C286.061 70.4746 288.322 74.912 289.901 80.032C291.48 85.1093 292.269 90.528 292.269 96.288C292.269 102.048 291.48 107.488 289.901 112.608C288.322 117.728 286.061 122.165 283.117 125.92H277.357C283.501 117.856 286.573 107.979 286.573 96.288C286.573 84.5973 283.501 74.7413 277.357 66.72Z" fill="white"/>
<path d="M326.834 69.28H347.058V75.04H332.786V88.992H346.162V94.496H332.786V116H326.834V69.28Z" fill="white"/>
<path d="M362.424 116V68H368.056V116H362.424Z" fill="white"/>
<path d="M385.356 86.752C387.49 83.6373 390.327 82.08 393.868 82.08C397.41 82.08 400.247 83.6373 402.38 86.752C404.514 89.8666 405.58 94.0693 405.58 99.36C405.58 104.651 404.514 108.853 402.38 111.968C400.247 115.083 397.41 116.64 393.868 116.64C390.327 116.64 387.49 115.083 385.356 111.968C383.223 108.853 382.156 104.651 382.156 99.36C382.156 94.0693 383.223 89.8666 385.356 86.752ZM389.516 108.32C390.583 110.453 392.034 111.52 393.868 111.52C395.703 111.52 397.175 110.453 398.284 108.32C399.394 106.187 399.948 103.2 399.948 99.36C399.948 95.52 399.394 92.5333 398.284 90.4C397.175 88.2666 395.703 87.2 393.868 87.2C392.034 87.2 390.54 88.2666 389.388 90.4C388.279 92.5333 387.724 95.52 387.724 99.36C387.767 103.2 388.364 106.187 389.516 108.32Z" fill="white"/>
<path d="M427.418 82.72L431.258 107.68L434.842 82.72H441.946L445.594 107.552L449.37 82.72H455.258L448.794 116H441.882L438.298 89.12L434.778 116H427.802L421.402 82.72H427.418Z" fill="white"/>
<path d="M476.407 96.928H487.927C487.927 93.7706 487.415 91.3386 486.391 89.632C485.367 87.9253 483.981 87.072 482.231 87.072C480.525 87.072 479.138 87.9466 478.071 89.696C477.005 91.4026 476.45 93.8133 476.407 96.928ZM476.407 101.92C476.493 104.864 477.175 107.232 478.455 109.024C479.778 110.773 481.357 111.648 483.191 111.648C485.325 111.648 487.671 110.837 490.231 109.216L491.575 114.08C488.717 115.787 485.773 116.64 482.743 116.64C479.245 116.64 476.386 115.083 474.167 111.968C471.991 108.811 470.903 104.608 470.903 99.36C470.903 93.984 471.927 89.76 473.975 86.688C476.023 83.616 478.797 82.08 482.295 82.08C485.751 82.08 488.439 83.5306 490.359 86.432C492.322 89.3333 493.303 93.536 493.303 99.04C493.303 99.68 493.261 100.64 493.175 101.92H476.407Z" fill="white"/>
<path d="M523.615 82.08V87.456C520.159 87.456 517.514 88.736 515.679 91.296C513.887 93.8133 512.991 97.1413 512.991 101.28V116H507.487V82.72H512.799L512.863 88.032C515.551 84.064 519.135 82.08 523.615 82.08Z" fill="white"/>
<path d="M545.816 87.2C543.171 87.2 541.848 88.5866 541.848 91.36C541.848 92.6826 542.168 93.728 542.808 94.496C543.448 95.2213 544.557 95.776 546.136 96.16C549.421 96.8426 551.747 98.0586 553.112 99.808C554.52 101.515 555.224 103.925 555.224 107.04C555.224 109.984 554.371 112.331 552.664 114.08C551 115.787 548.717 116.64 545.816 116.64C542.403 116.64 539.245 115.573 536.344 113.44L537.496 108.32C540.227 110.453 542.936 111.52 545.624 111.52C548.312 111.52 549.656 110.027 549.656 107.04C549.656 105.589 549.357 104.48 548.76 103.712C548.163 102.901 547.075 102.304 545.496 101.92C542.296 101.152 539.971 99.936 538.52 98.272C537.069 96.608 536.344 94.304 536.344 91.36C536.344 88.544 537.176 86.304 538.84 84.64C540.547 82.9333 542.872 82.08 545.816 82.08C548.845 82.08 551.704 82.9333 554.392 84.64L553.304 89.76C550.744 88.0533 548.248 87.2 545.816 87.2Z" fill="white"/>
</svg>
