<svg width="554" height="139" viewBox="0 0 554 139" fill="none" xmlns="http://www.w3.org/2000/svg">
<rect x="147" width="407" height="139" rx="69.5" fill="#BF0A36" fill-opacity="0.65"/>
<rect width="228" height="139" rx="69.5" fill="#BF0A36" fill-opacity="0.65"/>
<path d="M28.8324 59H37.2804V64.12H28.8324V79.48C28.8324 82.2106 29.0457 84.0666 29.4724 85.048C29.8991 86.0293 30.6884 86.52 31.8404 86.52C33.2484 86.52 34.6991 86.136 36.1924 85.368L37.1524 90.36C35.1044 91.2133 33.0991 91.64 31.1364 91.64C28.4057 91.64 26.4217 90.808 25.1844 89.144C23.9471 87.48 23.3284 84.6853 23.3284 80.76V64.12H18.4004V59H23.3284V46.84H28.8324V59Z" fill="white"/>
<path d="M66.3094 57.08C71.7281 57.08 74.4374 61.9866 74.4374 71.8V91H69.0614V72.44C69.0614 68.5573 68.7414 65.912 68.1014 64.504C67.4614 63.0533 66.3521 62.328 64.7734 62.328C63.4081 62.328 62.1494 63.4586 60.9974 65.72C59.8454 67.9386 59.2694 70.392 59.2694 73.08V91H53.8294V43H59.2694V61.112C61.1894 58.424 63.5361 57.08 66.3094 57.08Z" fill="white"/>
<path d="M94.4699 71.928H105.99C105.99 68.7706 105.478 66.3386 104.454 64.632C103.43 62.9253 102.043 62.072 100.294 62.072C98.5872 62.072 97.2006 62.9466 96.1339 64.696C95.0672 66.4026 94.5126 68.8133 94.4699 71.928ZM94.4699 76.92C94.5552 79.864 95.2379 82.232 96.5179 84.024C97.8406 85.7733 99.4192 86.648 101.254 86.648C103.387 86.648 105.734 85.8373 108.294 84.216L109.638 89.08C106.779 90.7866 103.835 91.64 100.806 91.64C97.3072 91.64 94.4486 90.0826 92.2299 86.968C90.0539 83.8106 88.9659 79.608 88.9659 74.36C88.9659 68.984 89.9899 64.76 92.0379 61.688C94.0859 58.616 96.8592 57.08 100.358 57.08C103.814 57.08 106.502 58.5306 108.422 61.432C110.385 64.3333 111.366 68.536 111.366 74.04C111.366 74.68 111.323 75.64 111.238 76.92H94.4699Z" fill="white"/>
<path d="M123.309 100.92V95.8H151.085V100.92H123.309Z" fill="white"/>
<path d="M163.74 91V44.28H170.012V91H163.74Z" fill="white"/>
<path d="M214.236 67C214.236 75.1066 212.722 81.2506 209.692 85.432C206.706 89.5706 202.418 91.64 196.828 91.64C193.714 91.64 190.684 91.32 187.74 90.68V44.6C190.642 43.9173 193.671 43.5973 196.828 43.64C202.418 43.64 206.706 45.6666 209.692 49.72C212.722 53.7306 214.236 59.4906 214.236 67ZM208.476 67C208.476 61.1973 207.474 56.824 205.468 53.88C203.506 50.8933 200.626 49.4 196.828 49.4C195.506 49.4 194.46 49.5493 193.692 49.848V85.432C194.46 85.7306 195.506 85.88 196.828 85.88C200.796 85.88 203.719 84.344 205.596 81.272C207.516 78.1573 208.476 73.4 208.476 67Z" fill="white"/>
<path d="M233.977 71.288C233.977 82.936 237.049 92.8133 243.193 100.92H237.433C234.532 97.1653 232.271 92.728 230.649 87.608C229.071 82.488 228.281 77.048 228.281 71.288C228.281 65.528 229.071 60.1093 230.649 55.032C232.271 49.912 234.532 45.4746 237.433 41.72H243.193C237.049 49.784 233.977 59.64 233.977 71.288Z" fill="white"/>
<path d="M252.357 41.72H258.117C261.061 45.4746 263.322 49.912 264.901 55.032C266.48 60.1093 267.269 65.528 267.269 71.288C267.269 77.048 266.48 82.488 264.901 87.608C263.322 92.728 261.061 97.1653 258.117 100.92H252.357C258.501 92.856 261.573 82.9786 261.573 71.288C261.573 59.5973 258.501 49.7413 252.357 41.72Z" fill="white"/>
<path d="M301.834 44.28H322.058V50.04H307.786V63.992H321.162V69.496H307.786V91H301.834V44.28Z" fill="white"/>
<path d="M337.424 91V43H343.056V91H337.424Z" fill="white"/>
<path d="M360.356 61.752C362.49 58.6373 365.327 57.08 368.868 57.08C372.41 57.08 375.247 58.6373 377.38 61.752C379.514 64.8666 380.58 69.0693 380.58 74.36C380.58 79.6506 379.514 83.8533 377.38 86.968C375.247 90.0826 372.41 91.64 368.868 91.64C365.327 91.64 362.49 90.0826 360.356 86.968C358.223 83.8533 357.156 79.6506 357.156 74.36C357.156 69.0693 358.223 64.8666 360.356 61.752ZM364.516 83.32C365.583 85.4533 367.034 86.52 368.868 86.52C370.703 86.52 372.175 85.4533 373.284 83.32C374.394 81.1866 374.948 78.2 374.948 74.36C374.948 70.52 374.394 67.5333 373.284 65.4C372.175 63.2666 370.703 62.2 368.868 62.2C367.034 62.2 365.54 63.2666 364.388 65.4C363.279 67.5333 362.724 70.52 362.724 74.36C362.767 78.2 363.364 81.1866 364.516 83.32Z" fill="white"/>
<path d="M402.418 57.72L406.258 82.68L409.842 57.72H416.946L420.594 82.552L424.37 57.72H430.258L423.794 91H416.882L413.298 64.12L409.778 91H402.802L396.402 57.72H402.418Z" fill="white"/>
<path d="M451.407 71.928H462.927C462.927 68.7706 462.415 66.3386 461.391 64.632C460.367 62.9253 458.981 62.072 457.231 62.072C455.525 62.072 454.138 62.9466 453.071 64.696C452.005 66.4026 451.45 68.8133 451.407 71.928ZM451.407 76.92C451.493 79.864 452.175 82.232 453.455 84.024C454.778 85.7733 456.357 86.648 458.191 86.648C460.325 86.648 462.671 85.8373 465.231 84.216L466.575 89.08C463.717 90.7866 460.773 91.64 457.743 91.64C454.245 91.64 451.386 90.0826 449.167 86.968C446.991 83.8106 445.903 79.608 445.903 74.36C445.903 68.984 446.927 64.76 448.975 61.688C451.023 58.616 453.797 57.08 457.295 57.08C460.751 57.08 463.439 58.5306 465.359 61.432C467.322 64.3333 468.303 68.536 468.303 74.04C468.303 74.68 468.261 75.64 468.175 76.92H451.407Z" fill="white"/>
<path d="M498.615 57.08V62.456C495.159 62.456 492.514 63.736 490.679 66.296C488.887 68.8133 487.991 72.1413 487.991 76.28V91H482.487V57.72H487.799L487.863 63.032C490.551 59.064 494.135 57.08 498.615 57.08Z" fill="white"/>
<path d="M520.816 62.2C518.171 62.2 516.848 63.5866 516.848 66.36C516.848 67.6826 517.168 68.728 517.808 69.496C518.448 70.2213 519.557 70.776 521.136 71.16C524.421 71.8426 526.747 73.0586 528.112 74.808C529.52 76.5146 530.224 78.9253 530.224 82.04C530.224 84.984 529.371 87.3306 527.664 89.08C526 90.7866 523.717 91.64 520.816 91.64C517.403 91.64 514.245 90.5733 511.344 88.44L512.496 83.32C515.227 85.4533 517.936 86.52 520.624 86.52C523.312 86.52 524.656 85.0266 524.656 82.04C524.656 80.5893 524.357 79.48 523.76 78.712C523.163 77.9013 522.075 77.304 520.496 76.92C517.296 76.152 514.971 74.936 513.52 73.272C512.069 71.608 511.344 69.304 511.344 66.36C511.344 63.544 512.176 61.304 513.84 59.64C515.547 57.9333 517.872 57.08 520.816 57.08C523.845 57.08 526.704 57.9333 529.392 59.64L528.304 64.76C525.744 63.0533 523.248 62.2 520.816 62.2Z" fill="white"/>
</svg>
