<svg width="208" height="208" viewBox="0 0 208 208" xmlns="http://www.w3.org/2000/svg">
<path d="M107.84 108.497C108.459 107.962 107.983 106.983 107.668 106.56L100.284 101.39C99.7788 101.238 98.696 101.126 98.405 101.891C98.0413 102.847 98.6566 103.278 98.1671 103.54C97.6776 103.803 95.167 104.769 95.1506 105.666C95.1375 106.383 95.218 107.024 95.26 107.256C93.3328 109.135 89.2953 113.067 88.5624 113.765C87.6462 114.637 81.7527 122.617 80.6314 123.345C79.5102 124.074 74.8528 125.05 73.3049 126.387C72.0666 127.458 70.7141 129.214 70.1927 129.959C62.887 140.684 48.162 162.295 47.7069 162.945C47.138 163.758 45.0514 168.047 45.4451 169.231C45.8389 170.415 45.5217 172.614 51.2646 176.635L53.7259 178.359C59.4689 182.38 61.427 181.33 62.6741 181.295C63.9211 181.26 67.2384 177.832 67.8073 177.02C68.2624 176.37 83.5344 155.141 91.1135 144.608C91.635 143.863 92.8233 141.992 93.4053 140.462C94.1328 138.55 93.4574 133.84 93.7582 132.537C94.0591 131.234 99.5424 122.966 100.048 121.807C100.453 120.88 102.768 115.741 103.874 113.287C104.106 113.248 104.736 113.104 105.406 112.846C106.243 112.524 106.292 109.835 106.371 109.285C106.451 108.735 107.066 109.166 107.84 108.497Z" fill="black"/>
<path d="M107.486 81.7203C107.726 83.6929 107.935 85.4174 107.951 86.0406C108.229 85.4827 109.148 84.0081 110.199 82.3215C111.926 79.5489 114.011 76.2033 114.193 75.4141C114.313 74.8965 114.278 73.8405 114.239 72.6363C114.179 70.8097 114.108 68.6412 114.546 67.4889C115.128 65.9593 116.316 64.0875 116.838 63.3428C124.417 52.8097 139.689 31.5811 140.144 30.9311C140.713 30.1187 144.03 26.6907 145.277 26.6559C145.454 26.651 145.645 26.6256 145.86 26.5972C147.156 26.4251 149.297 26.1411 154.225 29.592L156.687 31.3154C161.615 34.7664 162.08 36.8755 162.362 38.1525C162.409 38.3635 162.45 38.5518 162.506 38.7197C162.9 39.9035 160.813 44.1932 160.244 45.0056C159.789 45.6555 145.064 67.2671 137.759 77.9917C137.237 78.7364 135.885 80.4933 134.646 81.5634C133.714 82.3694 131.652 83.0443 129.915 83.6128C128.769 83.9876 127.765 84.3162 127.32 84.6056C126.641 85.0468 124.209 88.1503 122.195 90.7218C120.97 92.2853 119.899 93.6524 119.469 94.1048C120.061 93.9068 121.753 93.5138 123.688 93.0644C126.87 92.3254 130.709 91.4336 131.396 91.0044C131.847 90.7229 132.569 89.9519 133.393 89.0724C134.642 87.7385 136.125 86.1548 137.25 85.65C138.743 84.98 140.907 84.4967 141.802 84.3388C154.609 82.2501 180.419 78.0381 181.201 77.9003C182.177 77.7281 186.947 77.6498 187.853 78.507C187.982 78.6286 188.135 78.7458 188.307 78.8772C189.345 79.6722 191.06 80.9853 192.104 86.9105L192.626 89.8695C193.671 95.7946 192.509 97.615 191.805 98.7172C191.689 98.8994 191.585 99.0619 191.506 99.2201C190.947 100.336 186.438 101.893 185.462 102.066C184.68 102.203 158.986 107.073 146.237 109.49C145.342 109.648 143.143 109.934 141.511 109.815C140.281 109.726 138.346 108.745 136.716 107.919C135.641 107.374 134.699 106.896 134.179 106.786C133.387 106.617 129.474 107.093 126.231 107.487C124.258 107.726 122.534 107.935 121.911 107.952C122.469 108.23 123.943 109.148 125.629 110.199C128.402 111.926 131.747 114.011 132.537 114.193C133.054 114.313 134.11 114.278 135.314 114.238C137.141 114.179 139.31 114.108 140.462 114.546C141.991 115.128 143.863 116.316 144.608 116.838C155.141 124.417 176.37 139.689 177.02 140.144C177.832 140.713 181.26 144.03 181.295 145.277C181.3 145.454 181.325 145.645 181.354 145.859C181.526 147.156 181.81 149.297 178.359 154.225L176.635 156.687C173.184 161.615 171.075 162.08 169.798 162.362C169.587 162.409 169.399 162.45 169.231 162.506C168.047 162.9 163.757 160.813 162.945 160.244C162.295 159.789 140.684 145.064 129.959 137.759C129.214 137.237 127.457 135.885 126.387 134.646C125.581 133.713 124.906 131.651 124.338 129.914C123.963 128.769 123.634 127.765 123.345 127.32C122.904 126.64 119.801 124.21 117.229 122.195C115.666 120.97 114.298 119.899 113.846 119.469C114.044 120.061 114.437 121.753 114.886 123.687C115.625 126.869 116.517 130.709 116.946 131.396C117.228 131.847 117.999 132.569 118.878 133.393C120.212 134.642 121.796 136.125 122.301 137.25C122.971 138.743 123.454 140.907 123.612 141.802C125.701 154.609 129.913 180.419 130.05 181.201C130.223 182.177 130.301 186.947 129.444 187.853C129.322 187.982 129.205 188.135 129.074 188.307C128.278 189.345 126.965 191.06 121.04 192.105L118.081 192.626C112.156 193.671 110.336 192.509 109.234 191.805C109.051 191.689 108.889 191.585 108.731 191.506C107.615 190.947 106.057 186.438 105.885 185.462C105.747 184.68 100.878 158.986 98.4603 146.237C98.3024 145.342 98.0164 143.143 98.1354 141.511C98.225 140.281 99.2059 138.346 100.032 136.716C100.577 135.641 101.054 134.699 101.165 134.179C101.333 133.387 100.858 129.473 100.464 126.231C100.452 126.127 100.439 126.025 100.427 125.923C100.615 125.62 100.794 125.331 100.96 125.061C101.499 124.186 102.058 123.266 102.271 122.778C102.618 121.984 104.416 117.988 105.608 115.344C105.822 115.276 106.048 115.198 106.277 115.11C107.488 114.644 107.978 113.56 108.148 113.139C108.371 112.587 108.493 111.997 108.567 111.54C108.605 111.308 108.635 111.079 108.659 110.864C108.916 110.725 109.174 110.551 109.426 110.333C110.688 109.242 110.652 107.768 110.472 106.96C110.296 106.168 109.908 105.507 109.612 105.11L109.378 104.797L101.356 99.1795L100.982 99.0673C100.508 98.9246 99.754 98.7861 98.9488 98.8916C98.128 98.9992 96.7306 99.4696 96.1376 101.028C96.0191 101.34 95.9433 101.641 95.9008 101.93C95.7073 102.027 95.5022 102.133 95.297 102.248C94.8924 102.474 94.3801 102.79 93.9372 103.189C93.5998 103.493 92.7488 104.324 92.725 105.621C92.7205 105.866 92.7246 106.105 92.7342 106.33C90.6576 108.354 87.5171 111.411 86.8899 112.008C86.5043 112.375 85.8312 113.215 85.1928 114.021C84.9964 114.269 84.7859 114.536 84.5657 114.816C84.4655 114.84 84.3645 114.863 84.2629 114.887C81.081 115.626 77.2416 116.517 76.5546 116.947C76.104 117.228 75.3819 117.999 74.5581 118.879C73.3089 120.213 71.8259 121.796 70.7011 122.301C69.208 122.971 67.0442 123.454 66.1489 123.612C53.3416 125.701 27.5317 129.913 26.7504 130.051C25.7737 130.223 21.004 130.301 20.0976 129.444C19.969 129.322 19.8159 129.205 19.6443 129.074C18.606 128.279 16.8912 126.966 15.8464 121.041L15.3247 118.082C14.2799 112.156 15.4422 110.336 16.146 109.234C16.2623 109.052 16.3661 108.889 16.4453 108.731C17.0039 107.615 21.5127 106.058 22.4894 105.885C23.2707 105.748 48.9647 100.878 61.714 98.4605C62.6092 98.3027 64.8079 98.0167 66.4402 98.1357C67.6697 98.2253 69.6051 99.2062 71.2352 100.032C72.3101 100.577 73.2523 101.055 73.7719 101.165C74.5642 101.334 78.4773 100.858 81.7201 100.464C83.6917 100.225 85.4163 100.016 86.04 99.9993C85.4818 99.7212 84.0084 98.8031 82.3228 97.753L82.3213 97.752C79.5487 96.0246 76.2031 93.9402 75.4139 93.7579C74.8962 93.6384 73.8405 93.673 72.6361 93.7125C70.8095 93.7723 68.641 93.8434 67.4888 93.405C65.9591 92.823 64.0873 91.6347 63.3426 91.1132C52.8096 83.5341 31.5809 68.2621 30.931 67.807C30.1186 67.2382 26.6906 63.9208 26.6557 62.6738C26.6508 62.4969 26.6254 62.3057 26.597 62.0915C26.425 60.7952 26.1409 58.6541 29.5918 53.7256L31.3152 51.2644C34.7662 46.3359 36.8753 45.8706 38.1523 45.5888C38.3633 45.5423 38.5517 45.5007 38.7195 45.4449C39.9033 45.0511 44.193 47.1378 45.0054 47.7066C45.6553 48.1617 67.267 62.8868 77.9916 70.1924C78.7362 70.7138 80.4932 72.0663 81.5632 73.3046C82.3693 74.2374 83.0441 76.2995 83.6126 78.0364C83.9874 79.1817 84.316 80.1856 84.6054 80.6311C85.0466 81.3104 88.1496 83.7414 90.7211 85.7559C92.2848 86.981 93.652 88.052 94.1046 88.4816C93.9065 87.8899 93.5137 86.1984 93.0643 84.2636C92.3253 81.0817 91.4334 77.2416 91.0042 76.5547C90.7227 76.1041 89.9517 75.382 89.0721 74.5583C87.7382 73.3091 86.1546 71.8259 85.6498 70.7012C84.9797 69.2081 84.4965 67.0442 84.3386 66.1489C82.2498 53.3416 78.0379 27.5318 77.9001 26.7504C77.7279 25.7737 77.6496 21.004 78.5068 20.0976C78.6284 19.9691 78.7456 19.8159 78.877 19.6443C79.672 18.6061 80.9851 16.8912 86.9102 15.8465L89.8692 15.3247C95.7944 14.2799 97.6148 15.4423 98.717 16.146C98.8991 16.2623 99.0617 16.3661 99.2199 16.4453C100.335 17.0039 101.893 21.5127 102.065 22.4894C102.203 23.2708 107.073 48.9647 109.49 61.714C109.648 62.6093 109.934 64.8079 109.815 66.4402C109.725 67.6698 108.745 69.6051 107.918 71.2352C107.374 72.3101 106.896 73.2523 106.786 73.772C106.617 74.5643 107.092 78.4775 107.486 81.7203Z" />
</svg>
