<svg width="712" height="712" viewBox="0 0 712 712" fill="none" xmlns="http://www.w3.org/2000/svg">
<g opacity="0.18">
<g style="mix-blend-mode:screen">
<path d="M354.289 416.616C388.711 416.616 416.616 388.711 416.616 354.289C416.616 319.867 388.711 291.962 354.289 291.962C319.867 291.962 291.962 319.867 291.962 354.289C291.962 388.711 319.867 416.616 354.289 416.616Z" fill="#0000FF"/>
<path d="M409.759 476.805C439.591 476.805 463.775 452.622 463.775 422.789C463.775 392.957 439.591 368.774 409.759 368.774C379.927 368.774 355.743 392.957 355.743 422.789C355.743 452.622 379.927 476.805 409.759 476.805Z" fill="#0000FF"/>
<path d="M306.283 482.227C336.115 482.227 360.298 458.044 360.298 428.212C360.298 398.379 336.115 374.196 306.283 374.196C276.451 374.196 252.267 398.379 252.267 428.212C252.267 458.044 276.451 482.227 306.283 482.227Z" fill="#0000FF"/>
<path d="M269.15 383.293C297.768 383.293 320.967 360.093 320.967 331.476C320.967 302.858 297.768 279.659 269.15 279.659C240.532 279.659 217.333 302.858 217.333 331.476C217.333 360.093 240.532 383.293 269.15 383.293Z" fill="#0000FF"/>
<path d="M349.676 320.283C379.508 320.283 403.692 296.099 403.692 266.267C403.692 236.435 379.508 212.251 349.676 212.251C319.844 212.251 295.66 236.435 295.66 266.267C295.66 296.099 319.844 320.283 349.676 320.283Z" fill="#0000FF"/>
<path d="M436.578 376.474C466.275 376.474 490.35 352.399 490.35 322.702C490.35 293.004 466.275 268.93 436.578 268.93C406.88 268.93 382.806 293.004 382.806 322.702C382.806 352.399 406.88 376.474 436.578 376.474Z" fill="#0000FF"/>
<path d="M465.229 506.199C473.464 506.199 480.139 499.523 480.139 491.289C480.139 483.055 473.464 476.379 465.229 476.379C456.995 476.379 450.32 483.055 450.32 491.289C450.32 499.523 456.995 506.199 465.229 506.199Z" fill="#0000FF"/>
<path d="M363.516 563.33C381.739 563.33 396.512 548.557 396.512 530.334C396.512 512.111 381.739 497.338 363.516 497.338C345.292 497.338 330.52 512.111 330.52 530.334C330.52 548.557 345.292 563.33 363.516 563.33Z" fill="#0000FF"/>
<path d="M258.276 544.175C281.494 544.175 300.316 525.353 300.316 502.135C300.316 478.918 281.494 460.096 258.276 460.096C235.059 460.096 216.237 478.918 216.237 502.135C216.237 525.353 235.059 544.175 258.276 544.175Z" fill="#0000FF"/>
<path d="M189.712 443.129C203.886 443.129 215.377 431.638 215.377 417.464C215.377 403.29 203.886 391.8 189.712 391.8C175.538 391.8 164.048 403.29 164.048 417.464C164.048 431.638 175.538 443.129 189.712 443.129Z" fill="#0000FF"/>
<path d="M184.01 317.951C189.139 317.951 193.298 313.792 193.298 308.663C193.298 303.533 189.139 299.374 184.01 299.374C178.88 299.374 174.722 303.533 174.722 308.663C174.722 313.792 178.88 317.951 184.01 317.951Z" fill="#0000FF"/>
<path d="M243.348 235.62C253.473 235.62 261.68 227.413 261.68 217.289C261.68 207.165 253.473 198.957 243.348 198.957C233.224 198.957 225.017 207.165 225.017 217.289C225.017 227.413 233.224 235.62 243.348 235.62Z" fill="#0000FF"/>
<path d="M345.063 214.419C365.042 214.419 381.237 198.223 381.237 178.245C381.237 158.267 365.042 142.071 345.063 142.071C325.085 142.071 308.889 158.267 308.889 178.245C308.889 198.223 325.085 214.419 345.063 214.419Z" fill="#0000FF"/>
<path d="M450.301 249.706C474.194 249.706 493.564 230.337 493.564 206.443C493.564 182.55 474.194 163.181 450.301 163.181C426.408 163.181 407.039 182.55 407.039 206.443C407.039 230.337 426.408 249.706 450.301 249.706Z" fill="#0000FF"/>
<path d="M518.867 318.488C533.985 318.488 546.241 306.232 546.241 291.113C546.241 275.995 533.985 263.739 518.867 263.739C503.748 263.739 491.492 275.995 491.492 291.113C491.492 306.232 503.748 318.488 518.867 318.488Z" fill="#0000FF"/>
<path d="M524.569 410.913C530.643 410.913 535.568 405.989 535.568 399.915C535.568 393.841 530.643 388.917 524.569 388.917C518.495 388.917 513.571 393.841 513.571 399.915C513.571 405.989 518.495 410.913 524.569 410.913Z" fill="#0000FF"/>
<path d="M520.7 599.63C542.703 599.63 560.54 581.793 560.54 559.79C560.54 537.786 542.703 519.949 520.7 519.949C498.696 519.949 480.859 537.786 480.859 559.79C480.859 581.793 498.696 599.63 520.7 599.63Z" fill="#0000FF"/>
<path d="M422.728 648.571C444.192 648.571 461.591 631.171 461.591 609.708C461.591 588.245 444.192 570.846 422.728 570.846C401.265 570.846 383.866 588.245 383.866 609.708C383.866 631.171 401.265 648.571 422.728 648.571Z" fill="#0000FF"/>
<path d="M312.923 652.859C333.576 652.859 350.319 636.116 350.319 615.463C350.319 594.81 333.576 578.067 312.923 578.067C292.27 578.067 275.527 594.81 275.527 615.463C275.527 636.116 292.27 652.859 312.923 652.859Z" fill="#0000FF"/>
<path d="M210.27 614.676C231.598 614.676 248.888 597.386 248.888 576.058C248.888 554.731 231.598 537.441 210.27 537.441C188.942 537.441 171.653 554.731 171.653 576.058C171.653 597.386 188.942 614.676 210.27 614.676Z" fill="#0000FF"/>
<path d="M132.52 537.415C154.118 537.415 171.627 519.906 171.627 498.307C171.627 476.709 154.118 459.2 132.52 459.2C110.921 459.2 93.4121 476.709 93.4121 498.307C93.4121 519.906 110.921 537.415 132.52 537.415Z" fill="#0000FF"/>
<path d="M93.1159 434.273C114.444 434.273 131.734 416.983 131.734 395.655C131.734 374.327 114.444 357.037 93.1159 357.037C71.7879 357.037 54.4981 374.327 54.4981 395.655C54.4981 416.983 71.7879 434.273 93.1159 434.273Z" fill="#0000FF"/>
<path d="M98.8696 323.734C119.793 323.734 136.754 306.772 136.754 285.849C136.754 264.927 119.793 247.965 98.8696 247.965C77.9467 247.965 60.9852 264.927 60.9852 285.849C60.9852 306.772 77.9467 323.734 98.8696 323.734Z" fill="#0000FF"/>
<path d="M148.789 227.474C170.657 227.474 188.385 209.746 188.385 187.878C188.385 166.01 170.657 148.282 148.789 148.282C126.921 148.282 109.193 166.01 109.193 187.878C109.193 209.746 126.921 227.474 148.789 227.474Z" fill="#0000FF"/>
<path d="M234.24 157.299C255.568 157.299 272.858 140.009 272.858 118.681C272.858 97.353 255.568 80.0633 234.24 80.0633C212.912 80.0633 195.623 97.353 195.623 118.681C195.623 140.009 212.912 157.299 234.24 157.299Z" fill="#0000FF"/>
<path d="M340.45 129.329C362.049 129.329 379.558 111.82 379.558 90.2218C379.558 68.6234 362.049 51.1144 340.45 51.1144C318.852 51.1144 301.343 68.6234 301.343 90.2218C301.343 111.82 318.852 129.329 340.45 129.329Z" fill="#0000FF"/>
<path d="M449.053 146.286C470.516 146.286 487.915 128.886 487.915 107.423C487.915 85.96 470.516 68.5606 449.053 68.5606C427.589 68.5606 410.19 85.96 410.19 107.423C410.19 128.886 427.589 146.286 449.053 146.286Z" fill="#0000FF"/>
<path d="M541.269 205.683C562.462 205.683 579.643 188.503 579.643 167.309C579.643 146.116 562.462 128.935 541.269 128.935C520.075 128.935 502.895 146.116 502.895 167.309C502.895 188.503 520.075 205.683 541.269 205.683Z" fill="#0000FF"/>
<path d="M601.156 297.411C622.079 297.411 639.04 280.449 639.04 259.526C639.04 238.603 622.079 221.642 601.156 221.642C580.233 221.642 563.271 238.603 563.271 259.526C563.271 280.449 580.233 297.411 601.156 297.411Z" fill="#0000FF"/>
<path d="M618.356 405.036C638.739 405.036 655.263 388.512 655.263 368.129C655.263 347.745 638.739 331.221 618.356 331.221C597.972 331.221 581.448 347.745 581.448 368.129C581.448 388.512 597.972 405.036 618.356 405.036Z" fill="#0000FF"/>
<path d="M589.898 513.445C611.496 513.445 629.005 495.936 629.005 474.338C629.005 452.739 611.496 435.23 589.898 435.23C568.299 435.23 550.791 452.739 550.791 474.338C550.791 495.936 568.299 513.445 589.898 513.445Z" fill="#0000FF"/>
<path d="M576.17 632.689C578.6 632.689 580.569 630.719 580.569 628.289C580.569 625.859 578.6 623.889 576.17 623.889C573.74 623.889 571.77 625.859 571.77 628.289C571.77 630.719 573.74 632.689 576.17 632.689Z" fill="#0000FF"/>
<path d="M480.64 688.576C483.475 688.576 485.773 686.278 485.773 683.443C485.773 680.608 483.475 678.31 480.64 678.31C477.805 678.31 475.506 680.608 475.506 683.443C475.506 686.278 477.805 688.576 480.64 688.576Z" fill="#0000FF"/>
<path d="M372.741 711.999C375.846 711.999 378.363 709.483 378.363 706.378C378.363 703.273 375.846 700.756 372.741 700.756C369.637 700.756 367.12 703.273 367.12 706.378C367.12 709.483 369.637 711.999 372.741 711.999Z" fill="#0000FF"/>
<path d="M263.036 699.003C265.331 699.003 267.191 697.143 267.191 694.848C267.191 692.553 265.331 690.693 263.036 690.693C260.742 690.693 258.881 692.553 258.881 694.848C258.881 697.143 260.742 699.003 263.036 699.003Z" fill="#0000FF"/>
<path d="M162.264 654.869C164.964 654.869 167.152 652.681 167.152 649.981C167.152 647.281 164.964 645.093 162.264 645.093C159.564 645.093 157.376 647.281 157.376 649.981C157.376 652.681 159.564 654.869 162.264 654.869Z" fill="#0000FF"/>
<path d="M80.2886 581.303C83.1235 581.303 85.4217 579.005 85.4217 576.17C85.4217 573.335 83.1235 571.037 80.2886 571.037C77.4537 571.037 75.1555 573.335 75.1555 576.17C75.1555 579.005 77.4537 581.303 80.2886 581.303Z" fill="#0000FF"/>
<path d="M25.1343 486.016C28.1037 486.016 30.511 483.609 30.511 480.64C30.511 477.67 28.1037 475.263 25.1343 475.263C22.1648 475.263 19.7575 477.67 19.7575 480.64C19.7575 483.609 22.1648 486.016 25.1343 486.016Z" fill="#0000FF"/>
<path d="M2.19991 374.941C3.41488 374.941 4.39981 373.956 4.39981 372.741C4.39981 371.526 3.41488 370.541 2.19991 370.541C0.984931 370.541 0 371.526 0 372.741C0 373.956 0.984931 374.941 2.19991 374.941Z" fill="#0000FF"/>
<path d="M13.7308 268.413C16.7002 268.413 19.1075 266.006 19.1075 263.036C19.1075 260.067 16.7002 257.66 13.7308 257.66C10.7613 257.66 8.35402 260.067 8.35402 263.036C8.35402 266.006 10.7613 268.413 13.7308 268.413Z" fill="#0000FF"/>
<path d="M58.5968 167.641C61.5663 167.641 63.9735 165.234 63.9735 162.264C63.9735 159.295 61.5663 156.887 58.5968 156.887C55.6273 156.887 53.2201 159.295 53.2201 162.264C53.2201 165.234 55.6273 167.641 58.5968 167.641Z" fill="#0000FF"/>
<path d="M132.408 85.177C135.108 85.177 137.296 82.9884 137.296 80.2887C137.296 77.589 135.108 75.4004 132.408 75.4004C129.708 75.4004 127.52 77.589 127.52 80.2887C127.52 82.9884 129.708 85.177 132.408 85.177Z" fill="#0000FF"/>
<path d="M227.938 31.0006C231.178 31.0006 233.805 28.3742 233.805 25.1342C233.805 21.8943 231.178 19.2678 227.938 19.2678C224.698 19.2678 222.072 21.8943 222.072 25.1342C222.072 28.3742 224.698 31.0006 227.938 31.0006Z" fill="#0000FF"/>
<path d="M335.836 4.39981C337.051 4.39981 338.036 3.41488 338.036 2.19991C338.036 0.984931 337.051 0 335.836 0C334.621 0 333.637 0.984931 333.637 2.19991C333.637 3.41488 334.621 4.39981 335.836 4.39981Z" fill="#0000FF"/>
<path d="M445.541 18.8638C448.376 18.8638 450.675 16.5657 450.675 13.7307C450.675 10.8958 448.376 8.59762 445.541 8.59762C442.707 8.59762 440.408 10.8958 440.408 13.7307C440.408 16.5657 442.707 18.8638 445.541 18.8638Z" fill="#0000FF"/>
<path d="M546.314 63.2403C548.878 63.2403 550.957 61.1613 550.957 58.5968C550.957 56.0323 548.878 53.9534 546.314 53.9534C543.749 53.9534 541.67 56.0323 541.67 58.5968C541.67 61.1613 543.749 63.2403 546.314 63.2403Z" fill="#0000FF"/>
<path d="M628.289 137.541C631.124 137.541 633.422 135.243 633.422 132.408C633.422 129.573 631.124 127.275 628.289 127.275C625.454 127.275 623.156 129.573 623.156 132.408C623.156 135.243 625.454 137.541 628.289 137.541Z" fill="#0000FF"/>
<path d="M683.443 233.071C686.278 233.071 688.577 230.773 688.577 227.938C688.577 225.103 686.278 222.805 683.443 222.805C680.608 222.805 678.31 225.103 678.31 227.938C678.31 230.773 680.608 233.071 683.443 233.071Z" fill="#0000FF"/>
<path d="M706.378 341.458C709.483 341.458 711.999 338.941 711.999 335.836C711.999 332.732 709.483 330.215 706.378 330.215C703.273 330.215 700.756 332.732 700.756 335.836C700.756 338.941 703.273 341.458 706.378 341.458Z" fill="#0000FF"/>
<path d="M694.848 450.185C697.413 450.185 699.492 448.106 699.492 445.541C699.492 442.977 697.413 440.898 694.848 440.898C692.284 440.898 690.205 442.977 690.205 445.541C690.205 448.106 692.284 450.185 694.848 450.185Z" fill="#0000FF"/>
<path d="M649.981 550.957C652.545 550.957 654.624 548.878 654.624 546.314C654.624 543.749 652.545 541.67 649.981 541.67C647.417 541.67 645.338 543.749 645.338 546.314C645.338 548.878 647.417 550.957 649.981 550.957Z" fill="#0000FF"/>
</g>
<g style="mix-blend-mode:screen">
<path d="M354.289 416.616C388.711 416.616 416.616 388.711 416.616 354.289C416.616 319.867 388.711 291.962 354.289 291.962C319.867 291.962 291.962 319.867 291.962 354.289C291.962 388.711 319.867 416.616 354.289 416.616Z" fill="#00FF00"/>
<path d="M434.537 446.233C465.179 446.233 490.02 421.393 490.02 390.751C490.02 360.109 465.179 335.269 434.537 335.269C403.895 335.269 379.055 360.109 379.055 390.751C379.055 421.393 403.895 446.233 434.537 446.233Z" fill="#00FF00"/>
<path d="M344.411 493.695C373.029 493.695 396.228 470.496 396.228 441.878C396.228 413.26 373.029 390.061 344.411 390.061C315.793 390.061 292.594 413.26 292.594 441.878C292.594 470.496 315.793 493.695 344.411 493.695Z" fill="#00FF00"/>
<path d="M267.935 424.511C296.958 424.511 320.486 400.983 320.486 371.961C320.486 342.938 296.958 319.41 267.935 319.41C238.913 319.41 215.385 342.938 215.385 371.961C215.385 400.983 238.913 424.511 267.935 424.511Z" fill="#00FF00"/>
<path d="M310.799 330.662C340.091 330.662 363.838 306.916 363.838 277.623C363.838 248.33 340.091 224.584 310.799 224.584C281.506 224.584 257.76 248.33 257.76 277.623C257.76 306.916 281.506 330.662 310.799 330.662Z" fill="#00FF00"/>
<path d="M413.763 342.763C443.326 342.763 467.291 318.798 467.291 289.236C467.291 259.673 443.326 235.708 413.763 235.708C384.201 235.708 360.236 259.673 360.236 289.236C360.236 318.798 384.201 342.763 413.763 342.763Z" fill="#00FF00"/>
<path d="M514.785 456.053C530.714 456.053 543.626 443.14 543.626 427.212C543.626 411.283 530.714 398.371 514.785 398.371C498.857 398.371 485.944 411.283 485.944 427.212C485.944 443.14 498.857 456.053 514.785 456.053Z" fill="#00FF00"/>
<path d="M441.271 517.888C446.941 517.888 451.536 513.292 451.536 507.623C451.536 501.954 446.941 497.358 441.271 497.358C435.602 497.358 431.006 501.954 431.006 507.623C431.006 513.292 435.602 517.888 441.271 517.888Z" fill="#00FF00"/>
<path d="M334.531 543.153C342.091 543.153 348.219 537.025 348.219 529.465C348.219 521.905 342.091 515.777 334.531 515.777C326.972 515.777 320.843 521.905 320.843 529.465C320.843 537.025 326.972 543.153 334.531 543.153Z" fill="#00FF00"/>
<path d="M235.34 519.105C254.508 519.105 270.047 503.566 270.047 484.397C270.047 465.229 254.508 449.689 235.34 449.689C216.171 449.689 200.632 465.229 200.632 484.397C200.632 503.566 216.171 519.105 235.34 519.105Z" fill="#00FF00"/>
<path d="M181.582 432.403C205.205 432.403 224.355 413.253 224.355 389.631C224.355 366.008 205.205 346.858 181.582 346.858C157.959 346.858 138.809 366.008 138.809 389.631C138.809 413.253 157.959 432.403 181.582 432.403Z" fill="#00FF00"/>
<path d="M193.792 307.764C208.371 307.764 220.19 295.946 220.19 281.367C220.19 266.788 208.371 254.969 193.792 254.969C179.213 254.969 167.395 266.788 167.395 281.367C167.395 295.946 179.213 307.764 193.792 307.764Z" fill="#00FF00"/>
<path d="M267.307 211.711C273.247 211.711 278.062 206.896 278.062 200.957C278.062 195.017 273.247 190.202 267.307 190.202C261.368 190.202 256.553 195.017 256.553 200.957C256.553 206.896 261.368 211.711 267.307 211.711Z" fill="#00FF00"/>
<path d="M374.046 195.245C382.956 195.245 390.178 188.023 390.178 179.113C390.178 170.204 382.956 162.982 374.046 162.982C365.137 162.982 357.915 170.204 357.915 179.113C357.915 188.023 365.137 195.245 374.046 195.245Z" fill="#00FF00"/>
<path d="M473.238 259.134C492.541 259.134 508.189 243.486 508.189 224.183C508.189 204.88 492.541 189.231 473.238 189.231C453.935 189.231 438.287 204.88 438.287 224.183C438.287 243.486 453.935 259.134 473.238 259.134Z" fill="#00FF00"/>
<path d="M526.997 361.476C550.485 361.476 569.526 342.436 569.526 318.947C569.526 295.459 550.485 276.418 526.997 276.418C503.509 276.418 484.468 295.459 484.468 318.947C484.468 342.436 503.509 361.476 526.997 361.476Z" fill="#00FF00"/>
<path d="M595.034 503.024C616.766 503.024 634.385 485.406 634.385 463.673C634.385 441.94 616.766 424.322 595.034 424.322C573.301 424.322 555.682 441.94 555.682 463.673C555.682 485.406 573.301 503.024 595.034 503.024Z" fill="#00FF00"/>
<path d="M529.73 591.732C551.599 591.732 569.326 574.004 569.326 552.136C569.326 530.268 551.599 512.54 529.73 512.54C507.862 512.54 490.135 530.268 490.135 552.136C490.135 574.004 507.862 591.732 529.73 591.732Z" fill="#00FF00"/>
<path d="M434.091 645.497C455.69 645.497 473.199 627.988 473.199 606.39C473.199 584.791 455.69 567.282 434.091 567.282C412.493 567.282 394.984 584.791 394.984 606.39C394.984 627.988 412.493 645.497 434.091 645.497Z" fill="#00FF00"/>
<path d="M324.653 653.96C345.037 653.96 361.561 637.436 361.561 617.052C361.561 596.669 345.037 580.145 324.653 580.145C304.27 580.145 287.746 596.669 287.746 617.052C287.746 637.436 304.27 653.96 324.653 653.96Z" fill="#00FF00"/>
<path d="M220.339 621.39C241.938 621.39 259.447 603.881 259.447 582.282C259.447 560.684 241.938 543.175 220.339 543.175C198.741 543.175 181.232 560.684 181.232 582.282C181.232 603.881 198.741 621.39 220.339 621.39Z" fill="#00FF00"/>
<path d="M139.188 546.952C160.651 546.952 178.05 529.552 178.05 508.089C178.05 486.626 160.651 469.227 139.188 469.227C117.725 469.227 100.325 486.626 100.325 508.089C100.325 529.552 117.725 546.952 139.188 546.952Z" fill="#00FF00"/>
<path d="M95.2288 445.431C116.287 445.431 133.358 428.36 133.358 407.302C133.358 386.244 116.287 369.173 95.2288 369.173C74.1706 369.173 57.0996 386.244 57.0996 407.302C57.0996 428.36 74.1706 445.431 95.2288 445.431Z" fill="#00FF00"/>
<path d="M96.0626 335.479C117.121 335.479 134.192 318.408 134.192 297.35C134.192 276.292 117.121 259.221 96.0626 259.221C75.0043 259.221 57.9333 276.292 57.9333 297.35C57.9333 318.408 75.0043 335.479 96.0626 335.479Z" fill="#00FF00"/>
<path d="M141.547 236.838C163.415 236.838 181.143 219.111 181.143 197.243C181.143 175.374 163.415 157.647 141.547 157.647C119.679 157.647 101.951 175.374 101.951 197.243C101.951 219.111 119.679 236.838 141.547 236.838Z" fill="#00FF00"/>
<path d="M223.816 162.907C245.144 162.907 262.434 145.617 262.434 124.289C262.434 102.961 245.144 85.6717 223.816 85.6717C202.488 85.6717 185.199 102.961 185.199 124.289C185.199 145.617 202.488 162.907 223.816 162.907Z" fill="#00FF00"/>
<path d="M328.645 130.213C350.244 130.213 367.753 112.704 367.753 91.1059C367.753 69.5075 350.244 51.9985 328.645 51.9985C307.047 51.9985 289.538 69.5075 289.538 91.1059C289.538 112.704 307.047 130.213 328.645 130.213Z" fill="#00FF00"/>
<path d="M437.909 142.293C459.372 142.293 476.771 124.893 476.771 103.43C476.771 81.9669 459.372 64.5676 437.909 64.5676C416.445 64.5676 399.046 81.9669 399.046 103.43C399.046 124.893 416.445 142.293 437.909 142.293Z" fill="#00FF00"/>
<path d="M532.714 197.747C554.042 197.747 571.331 180.457 571.331 159.129C571.331 137.801 554.042 120.511 532.714 120.511C511.386 120.511 494.096 137.801 494.096 159.129C494.096 180.457 511.386 197.747 532.714 197.747Z" fill="#00FF00"/>
<path d="M596.667 286.457C617.589 286.457 634.551 269.496 634.551 248.573C634.551 227.65 617.589 210.688 596.667 210.688C575.744 210.688 558.782 227.65 558.782 248.573C558.782 269.496 575.744 286.457 596.667 286.457Z" fill="#00FF00"/>
<path d="M618.711 393.204C639.094 393.204 655.618 376.68 655.618 356.297C655.618 335.913 639.094 319.389 618.711 319.389C598.328 319.389 581.803 335.913 581.803 356.297C581.803 376.68 598.328 393.204 618.711 393.204Z" fill="#00FF00"/>
<path d="M675.283 504.534C677.713 504.534 679.683 502.564 679.683 500.134C679.683 497.704 677.713 495.734 675.283 495.734C672.853 495.734 670.883 497.704 670.883 500.134C670.883 502.564 672.853 504.534 675.283 504.534Z" fill="#00FF00"/>
<path d="M614.503 596.099C616.663 596.099 618.414 594.348 618.414 592.188C618.414 590.029 616.663 588.278 614.503 588.278C612.344 588.278 610.593 590.029 610.593 592.188C610.593 594.348 612.344 596.099 614.503 596.099Z" fill="#00FF00"/>
<path d="M528.253 665.598C530.817 665.598 532.896 663.519 532.896 660.955C532.896 658.391 530.817 656.312 528.253 656.312C525.688 656.312 523.609 658.391 523.609 660.955C523.609 663.519 525.688 665.598 528.253 665.598Z" fill="#00FF00"/>
<path d="M424.973 704.592C427.673 704.592 429.862 702.403 429.862 699.704C429.862 697.004 427.673 694.815 424.973 694.815C422.274 694.815 420.085 697.004 420.085 699.704C420.085 702.403 422.274 704.592 424.973 704.592Z" fill="#00FF00"/>
<path d="M314.775 710.018C317.745 710.018 320.152 707.61 320.152 704.641C320.152 701.671 317.745 699.264 314.775 699.264C311.806 699.264 309.398 701.671 309.398 704.641C309.398 707.61 311.806 710.018 314.775 710.018Z" fill="#00FF00"/>
<path d="M208.444 680.171C211.144 680.171 213.332 677.983 213.332 675.283C213.332 672.583 211.144 670.395 208.444 670.395C205.744 670.395 203.556 672.583 203.556 675.283C203.556 677.983 205.744 680.171 208.444 680.171Z" fill="#00FF00"/>
<path d="M116.391 619.637C119.225 619.637 121.524 617.339 121.524 614.504C121.524 611.669 119.225 609.371 116.391 609.371C113.556 609.371 111.257 611.669 111.257 614.504C111.257 617.339 113.556 619.637 116.391 619.637Z" fill="#00FF00"/>
<path d="M47.623 532.896C50.1875 532.896 52.2664 530.817 52.2664 528.253C52.2664 525.688 50.1875 523.609 47.623 523.609C45.0585 523.609 42.9795 525.688 42.9795 528.253C42.9795 530.817 45.0585 532.896 47.623 532.896Z" fill="#00FF00"/>
<path d="M8.87424 429.617C11.4387 429.617 13.5177 427.538 13.5177 424.974C13.5177 422.409 11.4387 420.33 8.87424 420.33C6.30975 420.33 4.23082 422.409 4.23082 424.974C4.23082 427.538 6.30975 429.617 8.87424 429.617Z" fill="#00FF00"/>
<path d="M3.93827 317.708C5.55824 317.708 6.87148 316.395 6.87148 314.775C6.87148 313.155 5.55824 311.842 3.93827 311.842C2.31831 311.842 1.00507 313.155 1.00507 314.775C1.00507 316.395 2.31831 317.708 3.93827 317.708Z" fill="#00FF00"/>
<path d="M33.2961 214.554C36.6705 214.554 39.4061 211.819 39.4061 208.444C39.4061 205.07 36.6705 202.334 33.2961 202.334C29.9216 202.334 27.186 205.07 27.186 208.444C27.186 211.819 29.9216 214.554 33.2961 214.554Z" fill="#00FF00"/>
<path d="M94.0744 120.791C96.5044 120.791 98.4743 118.821 98.4743 116.391C98.4743 113.961 96.5044 111.991 94.0744 111.991C91.6445 111.991 89.6746 113.961 89.6746 116.391C89.6746 118.821 91.6445 120.791 94.0744 120.791Z" fill="#00FF00"/>
<path d="M180.325 53C183.294 53 185.702 50.5928 185.702 47.6233C185.702 44.6538 183.294 42.2466 180.325 42.2466C177.355 42.2466 174.948 44.6538 174.948 47.6233C174.948 50.5928 177.355 53 180.325 53Z" fill="#00FF00"/>
<path d="M283.605 13.7629C286.305 13.7629 288.494 11.5743 288.494 8.87461C288.494 6.17489 286.305 3.98634 283.605 3.98634C280.906 3.98634 278.717 6.17489 278.717 8.87461C278.717 11.5743 280.906 13.7629 283.605 13.7629Z" fill="#00FF00"/>
<path d="M393.804 6.87179C395.424 6.87179 396.737 5.55854 396.737 3.93858C396.737 2.31861 395.424 1.00537 393.804 1.00537C392.184 1.00537 390.871 2.31861 390.871 3.93858C390.871 5.55854 392.184 6.87179 393.804 6.87179Z" fill="#00FF00"/>
<path d="M500.134 38.4293C502.969 38.4293 505.267 36.1312 505.267 33.2962C505.267 30.4613 502.969 28.1631 500.134 28.1631C497.299 28.1631 495.001 30.4613 495.001 33.2962C495.001 36.1312 497.299 38.4293 500.134 38.4293Z" fill="#00FF00"/>
<path d="M592.188 99.2077C595.023 99.2077 597.322 96.9095 597.322 94.0746C597.322 91.2397 595.023 88.9415 592.188 88.9415C589.354 88.9415 587.055 91.2397 587.055 94.0746C587.055 96.9095 589.354 99.2077 592.188 99.2077Z" fill="#00FF00"/>
<path d="M660.955 185.458C663.79 185.458 666.088 183.16 666.088 180.325C666.088 177.49 663.79 175.192 660.955 175.192C658.12 175.192 655.822 177.49 655.822 180.325C655.822 183.16 658.12 185.458 660.955 185.458Z" fill="#00FF00"/>
<path d="M699.703 288.005C702.133 288.005 704.103 286.036 704.103 283.606C704.103 281.176 702.133 279.206 699.703 279.206C697.273 279.206 695.304 281.176 695.304 283.606C695.304 286.036 697.273 288.005 699.703 288.005Z" fill="#00FF00"/>
<path d="M704.641 399.426C707.745 399.426 710.262 396.909 710.262 393.804C710.262 390.699 707.745 388.183 704.641 388.183C701.536 388.183 699.019 390.699 699.019 393.804C699.019 396.909 701.536 399.426 704.641 399.426Z" fill="#00FF00"/>
</g>
<g style="mix-blend-mode:screen">
<path d="M354.289 416.616C388.711 416.616 416.616 388.711 416.616 354.289C416.616 319.867 388.711 291.962 354.289 291.962C319.867 291.962 291.962 319.867 291.962 354.289C291.962 388.711 319.867 416.616 354.289 416.616Z" fill="#FF0000"/>
<path d="M373.269 493.892C402.831 493.892 426.796 469.927 426.796 440.364C426.796 410.802 402.831 386.837 373.269 386.837C343.707 386.837 319.742 410.802 319.742 440.364C319.742 469.927 343.707 493.892 373.269 493.892Z" fill="#FF0000"/>
<path d="M278.291 450.755C306.909 450.755 330.108 427.556 330.108 398.938C330.108 370.32 306.909 347.121 278.291 347.121C249.673 347.121 226.474 370.32 226.474 398.938C226.474 427.556 249.673 450.755 278.291 450.755Z" fill="#FF0000"/>
<path d="M288.341 350.314C318.443 350.314 342.846 325.911 342.846 295.808C342.846 265.706 318.443 241.303 288.341 241.303C258.238 241.303 233.835 265.706 233.835 295.808C233.835 325.911 258.238 350.314 288.341 350.314Z" fill="#FF0000"/>
<path d="M389.528 326.781C418.956 326.781 442.812 302.925 442.812 273.497C442.812 244.069 418.956 220.213 389.528 220.213C360.1 220.213 336.244 244.069 336.244 273.497C336.244 302.925 360.1 326.781 389.528 326.781Z" fill="#FF0000"/>
<path d="M442.017 416.853C471.849 416.853 496.033 392.67 496.033 362.838C496.033 333.005 471.849 308.822 442.017 308.822C412.185 308.822 388.001 333.005 388.001 362.838C388.001 392.67 412.185 416.853 442.017 416.853Z" fill="#FF0000"/>
<path d="M392.249 567.014C414.658 567.014 432.823 548.848 432.823 526.44C432.823 504.031 414.658 485.866 392.249 485.866C369.841 485.866 351.675 504.031 351.675 526.44C351.675 548.848 369.841 567.014 392.249 567.014Z" fill="#FF0000"/>
<path d="M283.811 541.294C297.85 541.294 309.231 529.914 309.231 515.875C309.231 501.836 297.85 490.455 283.811 490.455C269.772 490.455 258.392 501.836 258.392 515.875C258.392 529.914 269.772 541.294 283.811 541.294Z" fill="#FF0000"/>
<path d="M202.295 452.388C207.155 452.388 211.094 448.449 211.094 443.589C211.094 438.729 207.155 434.789 202.295 434.789C197.435 434.789 193.495 438.729 193.495 443.589C193.495 448.449 197.435 452.388 202.295 452.388Z" fill="#FF0000"/>
<path d="M178.834 355.77C189.093 355.77 197.41 347.453 197.41 337.194C197.41 326.935 189.093 318.618 178.834 318.618C168.575 318.618 160.258 326.935 160.258 337.194C160.258 347.453 168.575 355.77 178.834 355.77Z" fill="#FF0000"/>
<path d="M222.391 274.479C242.909 274.479 259.542 257.846 259.542 237.328C259.542 216.81 242.909 200.177 222.391 200.177C201.873 200.177 185.24 216.81 185.24 237.328C185.24 257.846 201.873 274.479 222.391 274.479Z" fill="#FF0000"/>
<path d="M316.33 223.689C339.278 223.689 357.881 205.086 357.881 182.138C357.881 159.19 339.278 140.587 316.33 140.587C293.382 140.587 274.779 159.19 274.779 182.138C274.779 205.086 293.382 223.689 316.33 223.689Z" fill="#FF0000"/>
<path d="M424.767 219.102C439.346 219.102 451.164 207.283 451.164 192.704C451.164 178.125 439.346 166.307 424.767 166.307C410.188 166.307 398.369 178.125 398.369 192.704C398.369 207.283 410.188 219.102 424.767 219.102Z" fill="#FF0000"/>
<path d="M506.284 276.233C512.494 276.233 517.527 271.2 517.527 264.99C517.527 258.781 512.494 253.747 506.284 253.747C500.075 253.747 495.041 258.781 495.041 264.99C495.041 271.2 500.075 276.233 506.284 276.233Z" fill="#FF0000"/>
<path d="M529.744 387.516C538.653 387.516 545.875 380.294 545.875 371.385C545.875 362.476 538.653 355.254 529.744 355.254C520.835 355.254 513.613 362.476 513.613 371.385C513.613 380.294 520.835 387.516 529.744 387.516Z" fill="#FF0000"/>
<path d="M486.187 506.691C505.76 506.691 521.627 490.823 521.627 471.25C521.627 451.676 505.76 435.809 486.187 435.809C466.613 435.809 450.746 451.676 450.746 471.25C450.746 490.823 466.613 506.691 486.187 506.691Z" fill="#FF0000"/>
<path d="M411.229 651.378C432.693 651.378 450.092 633.978 450.092 612.515C450.092 591.052 432.693 573.653 411.229 573.653C389.766 573.653 372.367 591.052 372.367 612.515C372.367 633.978 389.766 651.378 411.229 651.378Z" fill="#FF0000"/>
<path d="M301.276 650.991C322.064 650.991 338.917 634.139 338.917 613.35C338.917 592.562 322.064 575.709 301.276 575.709C280.487 575.709 263.635 592.562 263.635 613.35C263.635 634.139 280.487 650.991 301.276 650.991Z" fill="#FF0000"/>
<path d="M200.49 607.765C221.684 607.765 238.864 590.585 238.864 569.391C238.864 548.198 221.684 531.017 200.49 531.017C179.297 531.017 162.116 548.198 162.116 569.391C162.116 590.585 179.297 607.765 200.49 607.765Z" fill="#FF0000"/>
<path d="M126.297 527.346C147.895 527.346 165.404 509.837 165.404 488.238C165.404 466.64 147.895 449.131 126.297 449.131C104.698 449.131 87.1895 466.64 87.1895 488.238C87.1895 509.837 104.698 527.346 126.297 527.346Z" fill="#FF0000"/>
<path d="M91.5257 423.032C113.124 423.032 130.633 405.523 130.633 383.925C130.633 362.326 113.124 344.817 91.5257 344.817C69.9272 344.817 52.4183 362.326 52.4183 383.925C52.4183 405.523 69.9272 423.032 91.5257 423.032Z" fill="#FF0000"/>
<path d="M102.189 312.617C123.247 312.617 140.318 295.546 140.318 274.488C140.318 253.429 123.247 236.358 102.189 236.358C81.1303 236.358 64.0593 253.429 64.0593 274.488C64.0593 295.546 81.1303 312.617 102.189 312.617Z" fill="#FF0000"/>
<path d="M156.442 218.933C178.58 218.933 196.526 200.987 196.526 178.849C196.526 156.711 178.58 138.764 156.442 138.764C134.304 138.764 116.357 156.711 116.357 178.849C116.357 200.987 134.304 218.933 156.442 218.933Z" fill="#FF0000"/>
<path d="M244.906 152.162C266.234 152.162 283.523 134.872 283.523 113.544C283.523 92.2163 266.234 74.9266 244.906 74.9266C223.578 74.9266 206.288 92.2163 206.288 113.544C206.288 134.872 223.578 152.162 244.906 152.162Z" fill="#FF0000"/>
<path d="M352.282 129.218C374.015 129.218 391.633 111.6 391.633 89.8667C391.633 68.1338 374.015 50.5157 352.282 50.5157C330.549 50.5157 312.931 68.1338 312.931 89.8667C312.931 111.6 330.549 129.218 352.282 129.218Z" fill="#FF0000"/>
<path d="M460.006 150.774C481.469 150.774 498.868 133.374 498.868 111.911C498.868 90.448 481.469 73.0486 460.006 73.0486C438.542 73.0486 421.143 90.448 421.143 111.911C421.143 133.374 438.542 150.774 460.006 150.774Z" fill="#FF0000"/>
<path d="M549.45 214.239C570.643 214.239 587.824 197.059 587.824 175.865C587.824 154.672 570.643 137.491 549.45 137.491C528.257 137.491 511.076 154.672 511.076 175.865C511.076 197.059 528.257 214.239 549.45 214.239Z" fill="#FF0000"/>
<path d="M605.149 308.554C626.072 308.554 643.033 291.592 643.033 270.669C643.033 249.746 626.072 232.785 605.149 232.785C584.226 232.785 567.265 249.746 567.265 270.669C567.265 291.592 584.226 308.554 605.149 308.554Z" fill="#FF0000"/>
<path d="M617.472 417.328C638.125 417.328 654.868 400.586 654.868 379.932C654.868 359.279 638.125 342.536 617.472 342.536C596.819 342.536 580.076 359.279 580.076 379.932C580.076 400.586 596.819 417.328 617.472 417.328Z" fill="#FF0000"/>
<path d="M584.289 524.113C606.022 524.113 623.64 506.495 623.64 484.762C623.64 463.029 606.022 445.411 584.289 445.411C562.556 445.411 544.938 463.029 544.938 484.762C544.938 506.495 562.556 524.113 584.289 524.113Z" fill="#FF0000"/>
<path d="M511.337 606.627C533.205 606.627 550.933 588.899 550.933 567.031C550.933 545.163 533.205 527.435 511.337 527.435C489.469 527.435 471.741 545.163 471.741 567.031C471.741 588.899 489.469 606.627 511.337 606.627Z" fill="#FF0000"/>
<path d="M430.208 703.234C432.773 703.234 434.852 701.155 434.852 698.59C434.852 696.026 432.773 693.947 430.208 693.947C427.644 693.947 425.565 696.026 425.565 698.59C425.565 701.155 427.644 703.234 430.208 703.234Z" fill="#FF0000"/>
<path d="M320.098 710.822C323.203 710.822 325.72 708.305 325.72 705.2C325.72 702.095 323.203 699.579 320.098 699.579C316.993 699.579 314.476 702.095 314.476 705.2C314.476 708.305 316.993 710.822 320.098 710.822Z" fill="#FF0000"/>
<path d="M213.333 682.103C215.898 682.103 217.977 680.024 217.977 677.46C217.977 674.895 215.898 672.816 213.333 672.816C210.769 672.816 208.69 674.895 208.69 677.46C208.69 680.024 210.769 682.103 213.333 682.103Z" fill="#FF0000"/>
<path d="M120.368 623.461C123.337 623.461 125.745 621.054 125.745 618.084C125.745 615.115 123.337 612.707 120.368 612.707C117.399 612.707 114.991 615.115 114.991 618.084C114.991 621.054 117.399 623.461 120.368 623.461Z" fill="#FF0000"/>
<path d="M50.2992 537.776C52.9989 537.776 55.1874 535.587 55.1874 532.888C55.1874 530.188 52.9989 528 50.2992 528C47.5994 528 45.4109 530.188 45.4109 532.888C45.4109 535.587 47.5994 537.776 50.2992 537.776Z" fill="#FF0000"/>
<path d="M9.98714 435.096C12.6869 435.096 14.8754 432.908 14.8754 430.208C14.8754 427.508 12.6869 425.32 9.98714 425.32C7.28742 425.32 5.09887 427.508 5.09887 430.208C5.09887 432.908 7.28742 435.096 9.98714 435.096Z" fill="#FF0000"/>
<path d="M3.37883 322.786C4.86357 322.786 6.06719 321.583 6.06719 320.098C6.06719 318.613 4.86357 317.41 3.37883 317.41C1.89408 317.41 0.69046 318.613 0.69046 320.098C0.69046 321.583 1.89408 322.786 3.37883 322.786Z" fill="#FF0000"/>
<path d="M31.1195 219.443C34.494 219.443 37.2295 216.708 37.2295 213.333C37.2295 209.959 34.494 207.223 31.1195 207.223C27.745 207.223 25.0094 209.959 25.0094 213.333C25.0094 216.708 27.745 219.443 31.1195 219.443Z" fill="#FF0000"/>
<path d="M90.4936 125.011C93.0581 125.011 95.1371 122.932 95.1371 120.368C95.1371 117.803 93.0581 115.725 90.4936 115.725C87.9291 115.725 85.8502 117.803 85.8502 120.368C85.8502 122.932 87.9291 125.011 90.4936 125.011Z" fill="#FF0000"/>
<path d="M175.69 55.9207C178.795 55.9207 181.312 53.4039 181.312 50.2992C181.312 47.1945 178.795 44.6776 175.69 44.6776C172.585 44.6776 170.069 47.1945 170.069 50.2992C170.069 53.4039 172.585 55.9207 175.69 55.9207Z" fill="#FF0000"/>
<path d="M278.369 15.1202C281.204 15.1202 283.503 12.822 283.503 9.98709C283.503 7.15215 281.204 4.85398 278.369 4.85398C275.535 4.85398 273.236 7.15215 273.236 9.98709C273.236 12.822 275.535 15.1202 278.369 15.1202Z" fill="#FF0000"/>
<path d="M388.48 6.06716C389.965 6.06716 391.168 4.86354 391.168 3.37879C391.168 1.89405 389.965 0.69043 388.48 0.69043C386.995 0.69043 385.791 1.89405 385.791 3.37879C385.791 4.86354 386.995 6.06716 388.48 6.06716Z" fill="#FF0000"/>
<path d="M495.244 36.4961C498.214 36.4961 500.621 34.0889 500.621 31.1194C500.621 28.1499 498.214 25.7427 495.244 25.7427C492.275 25.7427 489.868 28.1499 489.868 31.1194C489.868 34.0889 492.275 36.4961 495.244 36.4961Z" fill="#FF0000"/>
<path d="M588.211 95.3819C590.911 95.3819 593.099 93.1933 593.099 90.4936C593.099 87.7939 590.911 85.6053 588.211 85.6053C585.511 85.6053 583.323 87.7939 583.323 90.4936C583.323 93.1933 585.511 95.3819 588.211 95.3819Z" fill="#FF0000"/>
<path d="M658.279 180.334C660.843 180.334 662.922 178.255 662.922 175.69C662.922 173.126 660.843 171.047 658.279 171.047C655.714 171.047 653.635 173.126 653.635 175.69C653.635 178.255 655.714 180.334 658.279 180.334Z" fill="#FF0000"/>
<path d="M698.591 282.28C700.75 282.28 702.501 280.529 702.501 278.37C702.501 276.21 700.75 274.459 698.591 274.459C696.431 274.459 694.681 276.21 694.681 278.37C694.681 280.529 696.431 282.28 698.591 282.28Z" fill="#FF0000"/>
<path d="M705.2 394.101C708.305 394.101 710.822 391.584 710.822 388.48C710.822 385.375 708.305 382.858 705.2 382.858C702.095 382.858 699.579 385.375 699.579 388.48C699.579 391.584 702.095 394.101 705.2 394.101Z" fill="#FF0000"/>
<path d="M677.46 499.644C679.89 499.644 681.859 497.675 681.859 495.245C681.859 492.815 679.89 490.845 677.46 490.845C675.03 490.845 673.06 492.815 673.06 495.245C673.06 497.675 675.03 499.644 677.46 499.644Z" fill="#FF0000"/>
<path d="M618.084 592.366C620.379 592.366 622.239 590.506 622.239 588.211C622.239 585.916 620.379 584.056 618.084 584.056C615.789 584.056 613.929 585.916 613.929 588.211C613.929 590.506 615.789 592.366 618.084 592.366Z" fill="#FF0000"/>
<path d="M532.888 662.678C535.318 662.678 537.288 660.708 537.288 658.279C537.288 655.849 535.318 653.879 532.888 653.879C530.458 653.879 528.488 655.849 528.488 658.279C528.488 660.708 530.458 662.678 532.888 662.678Z" fill="#FF0000"/>
</g>
</g>
</svg>
