<svg width="395" height="395" viewBox="0 0 395 395" fill="none" xmlns="http://www.w3.org/2000/svg">
<path d="M117.373 276.051H110.5V283.674H117.373V296.962C117.373 298.257 117.772 299.392 118.611 300.29L118.619 300.298L118.626 300.306C119.503 301.201 120.619 301.633 121.899 301.633H132.644V294.01H125.453C125.326 294.01 125.255 293.992 125.222 293.979C125.2 293.971 125.193 293.967 125.182 293.947C125.176 293.934 125.166 293.912 125.156 293.878C125.135 293.808 125.116 293.694 125.116 293.523V283.674H133.485V276.051H125.116V266.307H117.373V276.051Z" fill="white"/>
<path d="M139.316 301.633H147.059V288.365C147.059 286.486 147.453 285.113 148.142 284.148C148.806 283.227 149.81 282.719 151.323 282.719C152.603 282.719 153.448 283.129 154.015 283.848L154.026 283.861L154.036 283.873C154.658 284.606 155.026 285.681 155.026 287.218V301.633H162.769V285.785C162.769 284.087 162.558 282.576 162.11 281.272C161.67 279.96 161.047 278.848 160.22 277.966C159.41 277.102 158.454 276.451 157.361 276.019C156.277 275.59 155.102 275.382 153.848 275.382C152.022 275.382 150.416 275.815 149.082 276.733C148.285 277.262 147.612 277.928 147.059 278.72V266.307H139.316V301.633Z" fill="white"/>
<path fill-rule="evenodd" clip-rule="evenodd" d="M190.792 295.419L184.071 291.746H188.069H191.818V287.6C191.818 286.245 191.58 284.869 191.115 283.477C190.639 282.02 189.892 280.702 188.879 279.529C187.854 278.308 186.566 277.327 185.034 276.577C183.446 275.767 181.585 275.382 179.484 275.382C177.749 275.382 176.103 275.706 174.553 276.359C173.043 276.977 171.711 277.855 170.564 278.993C169.409 280.138 168.499 281.519 167.832 283.122L167.828 283.13L167.825 283.138C167.183 284.761 166.869 286.539 166.869 288.46V288.747C166.869 290.812 167.163 292.692 167.768 294.375L167.771 294.383L167.774 294.39C168.406 296.056 169.28 297.489 170.404 298.672L170.409 298.677L170.413 298.682C171.566 299.859 172.922 300.758 174.471 301.377C176.026 301.999 177.732 302.302 179.578 302.302C181.169 302.302 182.588 302.12 183.819 301.736C185.035 301.367 186.09 300.886 186.964 300.281C187.837 299.697 188.568 299.045 189.138 298.317L189.144 298.308L189.151 298.299C189.679 297.591 190.106 296.898 190.42 296.221L190.792 295.419ZM183.699 292.542C183.44 293.094 183.004 293.608 182.341 294.071C181.773 294.437 180.858 294.679 179.484 294.679C178.837 294.679 178.223 294.584 177.639 294.397C177.083 294.178 176.586 293.897 176.143 293.555C175.741 293.191 175.417 292.782 175.165 292.326C175.08 292.14 175.009 291.946 174.953 291.746H184.071L183.699 292.542ZM176.386 283.477C176.885 283.059 178.106 282.571 179.437 282.571C180.784 282.571 181.983 283.072 182.579 283.477C183.176 283.882 183.818 284.632 184.071 285.549H174.953C175.165 284.632 175.887 283.895 176.386 283.477Z" fill="white"/>
<path d="M217.049 302.034H192.287V309.371H217.049V302.034Z" fill="white"/>
<path d="M245.476 266.307H221.742V274.217H229.597V293.724H221.742V301.633H245.476V293.724H237.621V274.217H245.476V266.307Z" fill="white"/>
<path fill-rule="evenodd" clip-rule="evenodd" d="M264.358 266.307H249.997V274.217H253.083V293.676H249.997V301.633H264.358C268.532 301.633 271.816 300.651 274.02 298.507L274.023 298.504L274.025 298.501C276.237 296.314 277.253 293.027 277.253 288.842V279.098C277.253 274.917 276.239 271.643 274.023 269.485C271.819 267.306 268.534 266.307 264.358 266.307ZM268.14 292.529L268.139 292.531C267.56 293.232 266.408 293.724 264.358 293.724H261.107V274.217H264.358C266.416 274.217 267.571 274.697 268.148 275.373L268.153 275.379L268.159 275.386C268.823 276.136 269.229 277.321 269.229 279.098V288.269C269.229 290.367 268.808 291.725 268.14 292.529Z" fill="white"/>
<path d="M310.919 307.539V299.884H308.359C306.882 299.884 305.538 299.683 304.32 299.29C303.132 298.906 302.1 298.295 301.215 297.453C300.368 296.62 299.674 295.543 299.146 294.196C298.657 292.839 298.397 291.164 298.397 289.148V277.826C298.397 275.805 298.658 274.147 299.146 272.823C299.675 271.442 300.37 270.351 301.215 269.52C302.1 268.679 303.132 268.067 304.32 267.684C305.538 267.291 306.882 267.09 308.359 267.09H310.919V259.435H308.089C305.774 259.435 303.559 259.784 301.449 260.486C299.343 261.165 297.484 262.253 295.881 263.746C294.265 265.221 292.991 267.106 292.045 269.375L292.043 269.38L292.041 269.385C291.113 271.687 290.665 274.387 290.665 277.461V289.513C290.665 292.586 291.113 295.286 292.041 297.588L292.043 297.593L292.045 297.599C292.991 299.868 294.265 301.753 295.881 303.228C297.484 304.721 299.343 305.808 301.449 306.488C303.559 307.19 305.774 307.539 308.089 307.539H310.919Z" fill="#540CED"/>
<path d="M327.91 297.448L327.905 297.453L327.9 297.458C327.047 298.296 326.033 298.906 324.845 299.29C323.626 299.683 322.282 299.884 320.805 299.884H318.245V307.539H321.076C323.389 307.539 325.589 307.19 327.67 306.488C329.805 305.809 331.68 304.722 333.284 303.228C334.901 301.751 336.161 299.864 337.077 297.593C338.036 295.289 338.5 292.587 338.5 289.513V277.461C338.5 274.386 338.036 271.684 337.077 269.38C336.161 267.109 334.901 265.222 333.283 263.746C331.68 262.252 329.805 261.165 327.67 260.486C325.589 259.783 323.389 259.435 321.076 259.435H318.245V267.09H320.805C322.282 267.09 323.626 267.291 324.845 267.684C326.033 268.067 327.047 268.678 327.9 269.515L327.905 269.52L327.91 269.525C328.78 270.353 329.471 271.439 329.969 272.812L329.973 272.823L329.977 272.834C330.493 274.153 330.767 275.808 330.767 277.826V289.148C330.767 291.165 330.493 292.838 329.975 294.191L329.973 294.196L329.971 294.201C329.475 295.544 328.783 296.617 327.91 297.448Z" fill="#540CED"/>
<path d="M115.543 342.318H117.635V322.878H115.543V320.091H125.411C126.573 320.091 127.596 320.258 128.48 320.591C129.386 320.925 130.142 321.378 130.746 321.949C131.374 322.521 131.839 323.212 132.141 324.022C132.467 324.808 132.629 325.666 132.629 326.595V327.023C132.629 327.714 132.525 328.346 132.315 328.917C132.106 329.489 131.816 330.001 131.444 330.454C131.072 330.907 130.63 331.3 130.119 331.633C129.63 331.943 129.096 332.181 128.515 332.348V332.777C129.677 333.11 130.653 333.753 131.444 334.706C132.234 335.635 132.629 336.779 132.629 338.137V338.566C132.629 339.495 132.467 340.364 132.141 341.174C131.839 341.96 131.374 342.651 130.746 343.247C130.142 343.818 129.386 344.271 128.48 344.605C127.596 344.938 126.573 345.105 125.411 345.105H115.543V342.318ZM120.564 342.318H125.202C126.573 342.318 127.689 341.972 128.549 341.281C129.41 340.567 129.84 339.59 129.84 338.351V338.137C129.84 336.85 129.433 335.838 128.619 335.099C127.806 334.337 126.701 333.956 125.306 333.956H120.564V342.318ZM120.564 331.169H125.306C126.701 331.169 127.806 330.799 128.619 330.061C129.433 329.322 129.84 328.31 129.84 327.023V326.809C129.84 325.594 129.41 324.641 128.549 323.95C127.689 323.236 126.573 322.878 125.202 322.878H120.564V331.169Z" fill="white"/>
<path d="M140.201 327.381H146.477V329.739H146.896C147.338 328.763 147.965 328.048 148.779 327.595C149.593 327.119 150.522 326.881 151.569 326.881C153.312 326.881 154.719 327.464 155.788 328.632C156.857 329.799 157.427 331.502 157.497 333.741L154.637 334.17C154.637 332.527 154.254 331.347 153.486 330.633C152.719 329.894 151.778 329.525 150.662 329.525C149.941 329.525 149.314 329.668 148.779 329.954C148.268 330.24 147.837 330.633 147.489 331.133C147.14 331.633 146.884 332.217 146.722 332.884C146.559 333.551 146.477 334.266 146.477 335.028V342.532H150.871V345.105H139.782V342.532H143.758V329.954H140.201V327.381Z" fill="white"/>
<path d="M166.196 337.1C166.266 338.863 166.801 340.281 167.8 341.353C168.8 342.425 170.195 342.961 171.985 342.961C172.799 342.961 173.508 342.866 174.112 342.675C174.716 342.484 175.228 342.222 175.646 341.889C176.088 341.555 176.437 341.174 176.692 340.745C176.971 340.293 177.192 339.816 177.355 339.316L179.935 340.031C179.447 341.674 178.541 343.02 177.215 344.069C175.914 345.093 174.147 345.605 171.915 345.605C170.683 345.605 169.544 345.391 168.498 344.962C167.475 344.509 166.592 343.878 165.848 343.068C165.104 342.258 164.523 341.293 164.104 340.174C163.686 339.054 163.476 337.815 163.476 336.457V335.6C163.476 334.361 163.686 333.205 164.104 332.133C164.546 331.061 165.15 330.144 165.917 329.382C166.685 328.596 167.58 327.988 168.602 327.56C169.649 327.107 170.776 326.881 171.985 326.881C173.403 326.881 174.623 327.155 175.646 327.702C176.692 328.227 177.541 328.882 178.192 329.668C178.866 330.454 179.354 331.312 179.656 332.241C179.982 333.17 180.145 334.027 180.145 334.814V337.1H166.196ZM171.985 329.525C171.218 329.525 170.497 329.656 169.823 329.918C169.172 330.156 168.591 330.502 168.079 330.954C167.591 331.407 167.184 331.943 166.859 332.562C166.557 333.158 166.359 333.813 166.266 334.528H177.425C177.378 333.765 177.192 333.074 176.867 332.455C176.565 331.836 176.158 331.312 175.646 330.883C175.158 330.454 174.589 330.12 173.938 329.882C173.31 329.644 172.659 329.525 171.985 329.525Z" fill="white"/>
<path d="M204.689 345.105H199.668L197.576 328.667H197.157L195.065 345.105H190.044L187.324 327.381H190.114L192.415 343.818H192.833L194.856 327.381H199.877L201.9 343.818H202.318L204.62 327.381H207.409L204.689 345.105Z" fill="white"/>
<path d="M219.688 322.092C219.688 321.401 219.921 320.818 220.386 320.341C220.874 319.841 221.455 319.591 222.129 319.591C222.803 319.591 223.373 319.841 223.838 320.341C224.326 320.818 224.57 321.401 224.57 322.092C224.57 322.783 224.326 323.379 223.838 323.879C223.373 324.355 222.803 324.594 222.129 324.594C221.455 324.594 220.874 324.355 220.386 323.879C219.921 323.379 219.688 322.783 219.688 322.092ZM214.737 342.532H220.804V329.954H215.364V327.381H223.524V342.532H229.173V345.105H214.737V342.532Z" fill="white"/>
<path d="M238.64 345.105H235.92V327.381H238.64V330.382H239.058C240.128 328.048 241.987 326.881 244.638 326.881C246.637 326.881 248.229 327.524 249.415 328.81C250.6 330.073 251.193 331.979 251.193 334.528V345.105H248.473V335.099C248.473 333.241 248.066 331.848 247.253 330.918C246.439 329.989 245.335 329.525 243.94 329.525C242.29 329.525 240.988 330.109 240.035 331.276C239.105 332.419 238.64 333.956 238.64 335.886V345.105Z" fill="white"/>
<path d="M272.843 342.389H272.425C271.867 343.461 271.1 344.271 270.123 344.819C269.17 345.343 268.124 345.605 266.985 345.605C265.823 345.605 264.73 345.403 263.707 344.998C262.684 344.593 261.778 344.009 260.987 343.247C260.22 342.484 259.604 341.543 259.139 340.424C258.697 339.28 258.476 337.982 258.476 336.529V335.957C258.476 334.528 258.709 333.253 259.174 332.133C259.639 330.99 260.255 330.037 261.022 329.275C261.789 328.489 262.684 327.893 263.707 327.488C264.73 327.083 265.799 326.881 266.915 326.881C268.17 326.881 269.263 327.166 270.193 327.738C271.146 328.286 271.89 329.096 272.425 330.168H272.843V327.381H275.563V349.464C275.563 350.274 275.307 350.941 274.796 351.466C274.308 351.99 273.668 352.252 272.878 352.252H261.615V349.679H271.902C272.529 349.679 272.843 349.322 272.843 348.607V342.389ZM267.055 342.961C267.868 342.961 268.624 342.806 269.321 342.496C270.019 342.187 270.623 341.746 271.134 341.174C271.669 340.602 272.088 339.923 272.39 339.137C272.692 338.327 272.843 337.434 272.843 336.457V336.028C272.843 335.076 272.692 334.206 272.39 333.42C272.088 332.61 271.669 331.919 271.134 331.347C270.623 330.776 270.007 330.335 269.286 330.025C268.589 329.692 267.845 329.525 267.055 329.525C266.241 329.525 265.474 329.68 264.753 329.989C264.056 330.299 263.44 330.74 262.905 331.312C262.394 331.883 261.987 332.562 261.685 333.348C261.406 334.135 261.266 335.004 261.266 335.957V336.529C261.266 337.529 261.406 338.423 261.685 339.209C261.987 339.995 262.394 340.674 262.905 341.246C263.44 341.794 264.056 342.222 264.753 342.532C265.451 342.818 266.218 342.961 267.055 342.961Z" fill="white"/>
<path fill-rule="evenodd" clip-rule="evenodd" d="M197 224.725C237.707 224.725 270.706 191.912 270.706 151.435C270.706 110.958 237.707 78.1455 197 78.1455C156.293 78.1455 123.294 110.958 123.294 151.435C123.294 191.912 156.293 224.725 197 224.725ZM197 239.435C245.877 239.435 285.5 200.036 285.5 151.435C285.5 102.834 245.877 63.4351 197 63.4351C148.123 63.4351 108.5 102.834 108.5 151.435C108.5 200.036 148.123 239.435 197 239.435Z" fill="white"/>
<path d="M199.666 153.897C200.06 153.559 199.757 152.939 199.556 152.671L194.855 149.398C194.533 149.302 193.844 149.231 193.659 149.715C193.427 150.32 193.819 150.593 193.507 150.759C193.196 150.925 191.597 151.537 191.587 152.105C191.578 152.559 191.63 152.965 191.656 153.111C190.429 154.301 187.859 156.791 187.392 157.232C186.809 157.784 183.056 162.836 182.342 163.297C181.629 163.759 178.663 164.377 177.678 165.223C176.889 165.901 176.028 167.013 175.696 167.485C171.045 174.274 161.669 187.957 161.38 188.368C161.017 188.882 159.689 191.598 159.94 192.348C160.19 193.097 159.988 194.489 163.645 197.035L165.212 198.126C168.868 200.672 170.115 200.007 170.909 199.985C171.703 199.963 173.815 197.793 174.177 197.278C174.467 196.867 184.191 183.427 189.016 176.759C189.348 176.287 190.105 175.102 190.475 174.134C190.939 172.923 190.509 169.941 190.7 169.117C190.892 168.292 194.383 163.058 194.705 162.324C194.963 161.737 196.436 158.483 197.141 156.93C197.288 156.905 197.69 156.814 198.116 156.651C198.649 156.447 198.68 154.744 198.731 154.396C198.781 154.048 199.173 154.321 199.666 153.897Z" fill="white"/>
<path d="M199.441 136.945C199.593 138.194 199.727 139.285 199.737 139.68C199.914 139.327 200.499 138.393 201.168 137.325C202.268 135.57 203.595 133.452 203.711 132.952C203.787 132.625 203.765 131.956 203.74 131.194C203.702 130.037 203.656 128.664 203.935 127.935C204.306 126.967 205.063 125.782 205.395 125.31C210.22 118.642 219.944 105.202 220.234 104.79C220.596 104.276 222.708 102.106 223.502 102.084C223.614 102.081 223.736 102.065 223.873 102.047C224.698 101.938 226.061 101.758 229.199 103.943L230.766 105.034C233.904 107.219 234.2 108.554 234.38 109.362C234.409 109.496 234.436 109.615 234.471 109.721C234.722 110.471 233.393 113.187 233.031 113.701C232.742 114.112 223.366 127.795 218.715 134.584C218.383 135.056 217.522 136.168 216.733 136.845C216.139 137.356 214.826 137.783 213.721 138.143C212.991 138.38 212.352 138.588 212.068 138.771C211.636 139.051 210.088 141.016 208.805 142.644C208.025 143.633 207.344 144.499 207.07 144.785C207.447 144.66 208.524 144.411 209.756 144.127C211.782 143.659 214.227 143.094 214.664 142.822C214.951 142.644 215.411 142.156 215.935 141.599C216.73 140.755 217.675 139.752 218.391 139.433C219.341 139.008 220.719 138.703 221.289 138.603C229.443 137.28 245.876 134.614 246.374 134.526C246.996 134.417 250.032 134.368 250.61 134.91C250.691 134.987 250.789 135.062 250.898 135.145C251.559 135.648 252.651 136.479 253.316 140.231L253.648 142.104C254.314 145.855 253.574 147.008 253.126 147.705C253.051 147.821 252.985 147.924 252.935 148.024C252.579 148.73 249.709 149.716 249.087 149.825C248.589 149.912 232.23 152.995 224.113 154.526C223.543 154.626 222.143 154.807 221.104 154.732C220.321 154.675 219.089 154.054 218.051 153.531C217.366 153.186 216.767 152.884 216.436 152.814C215.931 152.707 213.44 153.008 211.375 153.257C210.119 153.409 209.022 153.541 208.624 153.552C208.98 153.728 209.919 154.309 210.992 154.974C212.757 156.068 214.887 157.388 215.39 157.503C215.72 157.579 216.392 157.557 217.159 157.532C218.322 157.494 219.702 157.449 220.436 157.726C221.41 158.095 222.601 158.847 223.076 159.177C229.782 163.976 243.298 173.644 243.712 173.932C244.229 174.293 246.412 176.393 246.434 177.182C246.437 177.294 246.453 177.415 246.471 177.551C246.581 178.372 246.762 179.727 244.564 182.847L243.467 184.405C241.27 187.526 239.927 187.82 239.114 187.999C238.98 188.028 238.86 188.054 238.753 188.09C237.999 188.339 235.268 187.018 234.751 186.658C234.337 186.37 220.577 177.047 213.749 172.422C213.275 172.092 212.156 171.236 211.475 170.452C210.962 169.861 210.532 168.556 210.17 167.456C209.931 166.731 209.722 166.096 209.538 165.814C209.257 165.383 207.281 163.844 205.644 162.569C204.648 161.793 203.778 161.115 203.49 160.843C203.616 161.218 203.866 162.289 204.152 163.514C204.623 165.528 205.19 167.959 205.464 168.394C205.643 168.68 206.134 169.137 206.694 169.658C207.543 170.449 208.551 171.388 208.873 172.1C209.299 173.045 209.607 174.415 209.708 174.982C211.038 183.09 213.719 199.43 213.807 199.925C213.917 200.543 213.966 203.563 213.421 204.137C213.343 204.218 213.269 204.315 213.185 204.424C212.679 205.081 211.843 206.167 208.07 206.828L206.186 207.159C202.414 207.82 201.255 207.084 200.553 206.639C200.437 206.565 200.334 206.499 200.233 206.449C199.523 206.096 198.531 203.241 198.421 202.623C198.333 202.128 195.233 185.861 193.694 177.79C193.593 177.223 193.411 175.831 193.487 174.798C193.544 174.019 194.169 172.794 194.695 171.762C195.042 171.082 195.346 170.485 195.416 170.156C195.523 169.654 195.22 167.177 194.97 165.124C194.962 165.059 194.954 164.994 194.946 164.929C195.066 164.737 195.18 164.554 195.285 164.384C195.629 163.829 195.985 163.247 196.12 162.938C196.341 162.436 197.486 159.905 198.245 158.232C198.381 158.189 198.525 158.14 198.671 158.084C199.441 157.789 199.754 157.103 199.862 156.836C200.004 156.486 200.081 156.113 200.129 155.823C200.153 155.676 200.172 155.531 200.187 155.395C200.351 155.307 200.515 155.197 200.675 155.059C201.479 154.369 201.456 153.436 201.342 152.924C201.229 152.422 200.982 152.004 200.794 151.752L200.645 151.555L195.537 147.998L195.299 147.927C194.997 147.837 194.518 147.749 194.005 147.816C193.482 147.884 192.593 148.182 192.215 149.168C192.14 149.366 192.091 149.557 192.064 149.739C191.941 149.801 191.81 149.868 191.68 149.941C191.422 150.084 191.096 150.284 190.814 150.536C190.599 150.729 190.057 151.255 190.042 152.076C190.039 152.232 190.042 152.383 190.048 152.525C188.726 153.806 186.726 155.742 186.327 156.119C186.082 156.352 185.653 156.884 185.247 157.394C185.122 157.551 184.987 157.72 184.847 157.898C184.784 157.912 184.719 157.927 184.655 157.942C182.629 158.41 180.184 158.975 179.747 159.246C179.46 159.425 179 159.913 178.476 160.47C177.68 161.314 176.736 162.317 176.02 162.636C175.069 163.06 173.692 163.366 173.121 163.466C164.967 164.789 148.534 167.455 148.037 167.542C147.415 167.651 144.378 167.701 143.801 167.158C143.719 167.081 143.622 167.007 143.512 166.924C142.851 166.421 141.76 165.589 141.094 161.838L140.762 159.965C140.097 156.214 140.837 155.061 141.285 154.363C141.359 154.248 141.425 154.145 141.476 154.045C141.831 153.339 144.702 152.353 145.324 152.244C145.821 152.156 162.18 149.073 170.298 147.543C170.868 147.443 172.268 147.262 173.307 147.337C174.09 147.394 175.322 148.015 176.36 148.538C177.044 148.883 177.644 149.185 177.975 149.255C178.479 149.362 180.971 149.061 183.036 148.812C184.291 148.66 185.389 148.527 185.786 148.517C185.431 148.341 184.492 147.76 183.419 147.095L183.418 147.094C181.653 146.001 179.523 144.681 179.02 144.566C178.691 144.49 178.019 144.512 177.252 144.537C176.089 144.575 174.708 144.62 173.975 144.342C173.001 143.974 171.809 143.221 171.335 142.891C164.628 138.093 151.112 128.424 150.699 128.136C150.181 127.776 147.999 125.676 147.977 124.887C147.973 124.775 147.957 124.654 147.939 124.518C147.83 123.697 147.649 122.342 149.846 119.222L150.943 117.663C153.14 114.543 154.483 114.249 155.296 114.07C155.431 114.041 155.551 114.014 155.657 113.979C156.411 113.73 159.142 115.051 159.66 115.411C160.073 115.699 173.833 125.021 180.662 129.647C181.136 129.977 182.254 130.833 182.936 131.617C183.449 132.207 183.879 133.513 184.24 134.613C184.479 135.338 184.688 135.973 184.873 136.255C185.153 136.685 187.129 138.224 188.766 139.5C189.762 140.275 190.632 140.953 190.921 141.225C190.795 140.851 190.544 139.78 190.258 138.555C189.788 136.54 189.22 134.109 188.947 133.674C188.767 133.389 188.277 132.932 187.717 132.411C186.867 131.62 185.859 130.681 185.538 129.969C185.111 129.023 184.803 127.653 184.703 127.087C183.373 118.978 180.691 102.638 180.603 102.144C180.494 101.525 180.444 98.5057 180.99 97.9318C181.067 97.8504 181.142 97.7535 181.225 97.6449C181.732 96.9876 182.568 95.9019 186.34 95.2405L188.224 94.9101C191.997 94.2487 193.156 94.9846 193.857 95.4301C193.973 95.5037 194.077 95.5694 194.177 95.6196C194.888 95.9732 195.88 98.8277 195.989 99.4461C196.077 99.9407 199.177 116.207 200.717 124.279C200.817 124.846 200.999 126.238 200.923 127.271C200.866 128.049 200.242 129.275 199.716 130.307C199.369 130.987 199.065 131.584 198.995 131.913C198.887 132.414 199.19 134.892 199.441 136.945Z" fill="white"/>
</svg>
