<svg width="280" height="112" viewBox="0 0 280 112" fill="none" xmlns="http://www.w3.org/2000/svg">
<path fill-rule="evenodd" clip-rule="evenodd" d="M56.2406 90.6673C75.4691 90.6673 91.0569 75.1462 91.0569 56C91.0569 36.8538 75.4691 21.3327 56.2406 21.3327C37.0121 21.3327 21.4243 36.8538 21.4243 56C21.4243 75.1462 37.0121 90.6673 56.2406 90.6673ZM56.2406 97.6257C79.3286 97.6257 98.0451 78.9892 98.0451 56C98.0451 33.0108 79.3286 14.3743 56.2406 14.3743C33.1526 14.3743 14.4361 33.0108 14.4361 56C14.4361 78.9892 33.1526 97.6257 56.2406 97.6257Z" fill="#540CED"/>
<path d="M57.4999 57.1646C57.6861 57.0044 57.5429 56.7112 57.448 56.5846L55.2274 55.0363C55.0755 54.9909 54.7498 54.9572 54.6623 55.1862C54.5529 55.4725 54.738 55.6015 54.5907 55.6802C54.4435 55.7588 53.6885 56.0482 53.6835 56.3166C53.6796 56.5314 53.7038 56.7236 53.7164 56.7928C53.1368 57.3555 51.9225 58.5332 51.7021 58.7421C51.4266 59.0032 49.6541 61.393 49.3168 61.6111C48.9796 61.8292 47.5789 62.1216 47.1134 62.5221C46.741 62.8426 46.3342 63.3687 46.1774 63.5917C43.9802 66.8034 39.5516 73.2753 39.4147 73.4699C39.2436 73.7132 38.6161 74.9978 38.7345 75.3523C38.8529 75.7068 38.7575 76.3654 40.4847 77.5696L41.225 78.0857C42.9522 79.29 43.5411 78.9754 43.9161 78.965C44.2912 78.9546 45.2889 77.928 45.46 77.6847C45.5968 77.4901 50.1899 71.1328 52.4694 67.9786C52.6262 67.7555 52.9836 67.195 53.1586 66.7369C53.3774 66.1644 53.1743 64.7538 53.2648 64.3636C53.3552 63.9735 55.0044 61.4977 55.1565 61.1505C55.2783 60.8729 55.9744 59.3339 56.3072 58.5991C56.3769 58.5872 56.5665 58.5442 56.7678 58.467C57.0195 58.3706 57.0343 57.5652 57.0582 57.4005C57.082 57.2359 57.2671 57.3649 57.4999 57.1646Z" fill="#540CED"/>
<path d="M57.3935 49.1459C57.4656 49.7366 57.5286 50.253 57.5334 50.4396C57.617 50.2725 57.8933 49.831 58.2094 49.3259C58.7289 48.4956 59.3558 47.4937 59.4106 47.2574C59.4465 47.1023 59.4361 46.7861 59.4243 46.4255C59.4063 45.8785 59.3849 45.2291 59.5167 44.884C59.6918 44.426 60.0492 43.8654 60.206 43.6424C62.4854 40.4881 67.0785 34.1309 67.2154 33.9363C67.3865 33.693 68.3842 32.6664 68.7592 32.656C68.8124 32.6545 68.8699 32.6469 68.9343 32.6384C69.3242 32.5869 69.9681 32.5018 71.4504 33.5352L72.1906 34.0513C73.6729 35.0848 73.8128 35.7164 73.8975 36.0988C73.9115 36.162 73.924 36.2184 73.9408 36.2687C74.0593 36.6232 73.4317 37.9078 73.2606 38.1511C73.1237 38.3457 68.6952 44.8176 66.498 48.0293C66.3411 48.2523 65.9344 48.7784 65.562 49.0989C65.2814 49.3402 64.6612 49.5423 64.1389 49.7126C63.7944 49.8248 63.4925 49.9232 63.3585 50.0099C63.1542 50.142 62.423 51.0714 61.8171 51.8415C61.4487 52.3097 61.1266 52.7191 60.9974 52.8546C61.1754 52.7953 61.6842 52.6776 62.2661 52.543C63.2231 52.3217 64.3779 52.0547 64.5845 51.9261C64.72 51.8418 64.9372 51.6109 65.1849 51.3475C65.5606 50.9481 66.0067 50.4738 66.3449 50.3227C66.794 50.122 67.4448 49.9773 67.714 49.93C71.5659 49.3045 79.3282 48.0432 79.5632 48.0019C79.857 47.9503 81.2914 47.9269 81.5641 48.1836C81.6027 48.22 81.6488 48.2551 81.7004 48.2944C82.0126 48.5325 82.5284 48.9257 82.8426 50.7001L82.9995 51.5863C83.3137 53.3606 82.9642 53.9058 82.7525 54.2358C82.7175 54.2904 82.6863 54.3391 82.6625 54.3864C82.4945 54.7205 81.1385 55.187 80.8447 55.2386C80.6097 55.2798 72.8822 56.7381 69.0478 57.462C68.7786 57.5093 68.1173 57.595 67.6264 57.5593C67.2566 57.5325 66.6746 57.2388 66.1843 56.9913C65.861 56.8282 65.5777 56.6852 65.4214 56.6521C65.1831 56.6017 64.0062 56.744 63.0309 56.8619C62.4378 56.9337 61.9192 56.9964 61.7317 57.0012C61.8996 57.0846 62.343 57.3596 62.85 57.6742C63.6839 58.1915 64.6901 58.8157 64.9274 58.8703C65.0831 58.9061 65.4007 58.8957 65.7629 58.8839C66.3122 58.866 66.9644 58.8447 67.3109 58.976C67.771 59.1503 68.3339 59.5061 68.5579 59.6623C71.7257 61.932 78.1103 66.5054 78.3058 66.6417C78.5501 66.812 79.5811 67.8055 79.5916 68.1789C79.593 68.2319 79.6007 68.2891 79.6092 68.3533C79.661 68.7415 79.7464 69.3827 78.7085 70.8586L78.1902 71.5956C77.1523 73.0716 76.518 73.2109 76.1339 73.2953C76.0705 73.3092 76.0138 73.3217 75.9633 73.3384C75.6073 73.4563 74.3172 72.8314 74.0728 72.6611C73.8774 72.5248 67.3776 68.1151 64.1522 65.9274C63.9282 65.7712 63.3998 65.3662 63.078 64.9954C62.8356 64.716 62.6326 64.0984 62.4616 63.5783C62.3489 63.2354 62.2501 62.9347 62.1631 62.8013C62.0304 62.5979 61.0972 61.8699 60.3238 61.2666C59.8534 60.8997 59.4422 60.579 59.3062 60.4504C59.3657 60.6275 59.4839 61.1342 59.619 61.7135C59.8413 62.6664 60.1095 63.8164 60.2386 64.0221C60.3233 64.157 60.5552 64.3733 60.8197 64.6199C61.2209 64.994 61.6972 65.4382 61.849 65.775C62.0505 66.2222 62.1958 66.8702 62.2433 67.1383C62.8715 70.9736 64.1383 78.7028 64.1797 78.9367C64.2315 79.2292 64.255 80.6576 63.9972 80.929C63.9607 80.9675 63.9254 81.0134 63.8859 81.0648C63.6468 81.3757 63.2519 81.8892 61.4699 82.2021L60.58 82.3583C58.798 82.6712 58.2505 82.3231 57.919 82.1124C57.8642 82.0776 57.8153 82.0465 57.7677 82.0228C57.4323 81.8555 56.9637 80.5052 56.912 80.2128C56.8705 79.9788 55.406 72.2843 54.6789 68.4664C54.6314 68.1983 54.5454 67.5398 54.5812 67.051C54.6082 66.6828 54.9032 66.1033 55.1517 65.6151C55.3155 65.2932 55.4591 65.011 55.4923 64.8554C55.543 64.6182 55.4 63.4462 55.2816 62.4752C55.2778 62.4442 55.2741 62.4135 55.2704 62.383C55.3269 62.2923 55.3808 62.2056 55.4307 62.1249C55.5928 61.8627 55.7611 61.5873 55.8251 61.4412C55.9293 61.2035 56.4702 60.0067 56.8286 59.215C56.8931 59.1947 56.9609 59.1714 57.0298 59.145C57.3939 59.0055 57.5414 58.6808 57.5925 58.5548C57.6596 58.3893 57.6962 58.2128 57.7185 58.0757C57.7298 58.0063 57.7389 57.9376 57.7463 57.8733C57.8235 57.8317 57.9009 57.7795 57.9768 57.7143C58.3563 57.3877 58.3455 56.9463 58.2915 56.7043C58.2385 56.467 58.1218 56.2691 58.0327 56.1502L57.9625 56.0566L55.5497 54.3743L55.4374 54.3407C55.2947 54.298 55.068 54.2565 54.8259 54.2881C54.579 54.3203 54.1587 54.4612 53.9804 54.9279C53.9447 55.0212 53.9219 55.1115 53.9092 55.198C53.8509 55.2269 53.7893 55.2589 53.7276 55.2932C53.6059 55.361 53.4518 55.4556 53.3186 55.575C53.2171 55.6659 52.9612 55.9149 52.954 56.3033C52.9527 56.3768 52.9539 56.4482 52.9568 56.5156C52.3323 57.1216 51.3877 58.0371 51.1991 58.2159C51.0831 58.3258 50.8807 58.5774 50.6887 58.8188C50.6296 58.893 50.5663 58.973 50.5001 59.0569C50.47 59.0639 50.4396 59.0709 50.409 59.078C49.4521 59.2993 48.2973 59.5664 48.0907 59.6949C47.9552 59.7792 47.738 60.0101 47.4903 60.2735C47.1146 60.673 46.6686 61.1472 46.3303 61.2983C45.8812 61.499 45.2305 61.6437 44.9612 61.691C41.1094 62.3165 33.347 63.5779 33.112 63.6191C32.8183 63.6707 31.3838 63.6941 31.1112 63.4374C31.0725 63.401 31.0265 63.3659 30.9749 63.3266C30.6626 63.0885 30.1469 62.6953 29.8326 60.9209L29.6757 60.0348C29.3615 58.2604 29.7111 57.7153 29.9227 57.3852C29.9577 57.3306 29.9889 57.282 30.0128 57.2346C30.1807 56.9005 31.5368 56.434 31.8305 56.3825C32.0655 56.3412 39.793 54.8829 43.6274 54.159C43.8967 54.1117 44.5579 54.0261 45.0488 54.0617C45.4186 54.0885 46.0007 54.3823 46.4909 54.6297C46.8142 54.7928 47.0976 54.9358 47.2538 54.9689C47.4921 55.0193 48.669 54.877 49.6443 54.7591C50.2372 54.6874 50.7559 54.6247 50.9435 54.6198C50.7756 54.5365 50.3325 54.2616 49.8256 53.9471L49.8251 53.9468C48.9912 53.4295 47.985 52.8053 47.7477 52.7507C47.592 52.7149 47.2745 52.7253 46.9122 52.7371C46.3629 52.755 45.7107 52.7763 45.3642 52.645C44.9041 52.4707 44.3412 52.1149 44.1172 51.9587C40.9494 49.689 34.5648 45.1156 34.3694 44.9793C34.125 44.809 33.094 43.8155 33.0836 43.4421C33.0821 43.3891 33.0744 43.3319 33.0659 43.2677C33.0142 42.8795 32.9287 42.2383 33.9666 40.7624L34.4849 40.0254C35.5228 38.5495 36.1571 38.4101 36.5412 38.3257C36.6046 38.3118 36.6613 38.2993 36.7118 38.2826C37.0678 38.1647 38.3579 38.7896 38.6023 38.9599C38.7977 39.0962 45.2975 43.5059 48.5229 45.6937C48.7469 45.8498 49.2753 46.2548 49.5971 46.6257C49.8395 46.905 50.0425 47.5225 50.2135 48.0427C50.3262 48.3856 50.425 48.6863 50.512 48.8197C50.6447 49.0231 51.578 49.7511 52.3513 50.3544C52.8216 50.7212 53.2328 51.042 53.3689 51.1706C53.3094 50.9934 53.1912 50.4869 53.0561 49.9075C52.8338 48.9546 52.5656 47.8046 52.4365 47.5989C52.3518 47.464 52.1199 47.2478 51.8554 47.0011C51.4542 46.627 50.978 46.1828 50.8261 45.846C50.6246 45.3989 50.4793 44.7509 50.4318 44.4828C49.8036 40.6474 48.5368 32.9183 48.4954 32.6843C48.4436 32.3918 48.4201 30.9634 48.6779 30.692C48.7144 30.6535 48.7497 30.6077 48.7892 30.5563C49.0283 30.2453 49.4232 29.7318 51.2052 29.4189L52.0951 29.2627C53.8771 28.9498 54.4246 29.2979 54.7561 29.5086C54.8109 29.5435 54.8598 29.5745 54.9074 29.5983C55.2429 29.7656 55.7114 31.1158 55.7632 31.4083C55.8046 31.6423 57.2691 39.3367 57.9962 43.1547C58.0437 43.4228 58.1297 44.0812 58.0939 44.57C58.0669 44.9382 57.7719 45.5178 57.5234 46.0059C57.3596 46.3278 57.216 46.61 57.1828 46.7656C57.1321 47.0029 57.2751 48.1748 57.3935 49.1459Z" fill="#540CED"/>
<path d="M117.105 35.4174H112.481V40.4005H117.105V49.0864C117.105 49.9327 117.373 50.6748 117.938 51.2617L117.943 51.2669L117.948 51.272C118.538 51.8572 119.289 52.1399 120.15 52.1399H127.378V47.1568H122.54C122.455 47.1568 122.407 47.1448 122.385 47.1367C122.371 47.1314 122.366 47.1283 122.359 47.1154C122.354 47.1071 122.348 47.0929 122.341 47.0705C122.327 47.0245 122.314 46.9501 122.314 46.8384V40.4005H127.944V35.4174H122.314V29.0481H117.105V35.4174Z" fill="black"/>
<path d="M131.867 52.1399H137.076V43.4664C137.076 42.2388 137.341 41.341 137.804 40.7099C138.251 40.1084 138.927 39.7761 139.944 39.7761C140.805 39.7761 141.374 40.0443 141.755 40.5138L141.762 40.5223L141.77 40.5306C142.188 41.0097 142.435 41.7123 142.435 42.7171V52.1399H147.644V41.7805C147.644 40.67 147.502 39.6823 147.201 38.8304C146.905 37.9729 146.486 37.2454 145.93 36.6694C145.384 36.1045 144.742 35.6791 144.006 35.3966C143.277 35.1164 142.487 34.9803 141.643 34.9803C140.415 34.9803 139.334 35.263 138.437 35.8635C137.901 36.2093 137.448 36.6444 137.076 37.1622V29.0481H131.867V52.1399Z" fill="black"/>
<path fill-rule="evenodd" clip-rule="evenodd" d="M166.496 48.078L161.975 45.677H164.665H167.187V42.9669C167.187 42.0807 167.027 41.1814 166.714 40.2715C166.394 39.3189 165.891 38.4575 165.21 37.6906C164.52 36.8929 163.654 36.2513 162.623 35.7612C161.554 35.232 160.303 34.9803 158.889 34.9803C157.722 34.9803 156.615 35.1921 155.572 35.619C154.556 36.0228 153.66 36.5969 152.888 37.3404C152.111 38.089 151.499 38.9917 151.05 40.0397L151.048 40.0449L151.046 40.0501C150.614 41.1106 150.403 42.2729 150.403 43.5289V43.7162C150.403 45.0661 150.6 46.2953 151.007 47.395L151.009 47.4002L151.011 47.4053C151.436 48.494 152.024 49.4305 152.78 50.2038L152.784 50.2072L152.787 50.2104C153.562 50.9801 154.474 51.5677 155.517 51.9725C156.563 52.3788 157.71 52.577 158.952 52.577C160.023 52.577 160.978 52.4581 161.806 52.2072C162.624 51.9656 163.333 51.6516 163.921 51.2556C164.508 50.874 165 50.4478 165.383 49.9721L165.388 49.9664L165.392 49.9606C165.748 49.4975 166.035 49.0445 166.246 48.6017L166.496 48.078ZM161.724 46.197C161.55 46.5581 161.257 46.8937 160.811 47.1963C160.429 47.4361 159.814 47.5939 158.889 47.5939C158.454 47.5939 158.041 47.5319 157.648 47.4096C157.274 47.2668 156.94 47.0829 156.642 46.8592C156.371 46.6212 156.153 46.3538 155.984 46.0562C155.926 45.934 155.879 45.8077 155.841 45.677H161.975L161.724 46.197ZM156.805 40.2715C157.141 39.998 157.962 39.6791 158.858 39.6791C159.764 39.6791 160.57 40.0067 160.972 40.2715C161.373 40.5362 161.805 41.0267 161.975 41.6257H155.841C155.984 41.0267 156.469 40.5449 156.805 40.2715Z" fill="black"/>
<path d="M184.16 52.4021H167.502V57.1979H184.16V52.4021Z" fill="black"/>
<path d="M203.284 29.0481H187.318V34.2186H192.602V46.9695H187.318V52.1399H203.284V46.9695H198V34.2186H203.284V29.0481Z" fill="black"/>
<path fill-rule="evenodd" clip-rule="evenodd" d="M215.986 29.0481H206.326V34.2186H208.402V46.9382H206.326V52.1399H215.986C218.795 52.1399 221.004 51.498 222.487 50.0961L222.489 50.0943L222.49 50.0925C223.978 48.6626 224.662 46.514 224.662 43.7787V37.4094C224.662 34.6764 223.979 32.5357 222.489 31.1254C221.006 29.7012 218.796 29.0481 215.986 29.0481ZM218.531 46.1886L218.53 46.1899C218.141 46.6479 217.366 46.9695 215.986 46.9695H213.799V34.2186H215.986C217.371 34.2186 218.149 34.5322 218.536 34.9743L218.54 34.9785L218.544 34.9826C218.99 35.4732 219.264 36.2475 219.264 37.4094V43.404C219.264 44.7757 218.98 45.6632 218.531 46.1886Z" fill="black"/>
<path d="M247.31 56V50.9964H245.588C244.594 50.9964 243.69 50.8648 242.87 50.6079C242.071 50.3575 241.377 49.9578 240.781 49.4076C240.212 48.8632 239.745 48.159 239.39 47.2783C239.061 46.3915 238.886 45.2967 238.886 43.9785V36.5776C238.886 35.2569 239.061 34.1727 239.39 33.3076C239.746 32.4049 240.213 31.6916 240.781 31.1486C241.377 30.5984 242.071 30.1987 242.87 29.9482C243.69 29.6914 244.594 29.5597 245.588 29.5597H247.31V24.5561H245.406C243.849 24.5561 242.359 24.7842 240.939 25.2428C239.522 25.6872 238.272 26.398 237.194 27.374C236.107 28.3382 235.249 29.5704 234.613 31.0536L234.611 31.057L234.61 31.0605C233.986 32.5652 233.684 34.33 233.684 36.3389V44.2173C233.684 46.2261 233.986 47.991 234.61 49.4957L234.611 49.4992L234.613 49.5026C235.249 50.9857 236.107 52.2179 237.194 53.1821C238.271 54.1581 239.522 54.8689 240.939 55.3133C242.359 55.772 243.849 56 245.406 56H247.31Z" fill="#540CED"/>
<path d="M258.741 49.4043L258.737 49.4076L258.734 49.4109C258.16 49.9584 257.478 50.3574 256.678 50.6079C255.859 50.8648 254.954 50.9964 253.961 50.9964H252.239V56H254.143C255.699 56 257.179 55.7723 258.579 55.3133C260.015 54.8693 261.276 54.1589 262.355 53.1821C263.443 52.217 264.291 50.9835 264.907 49.4992C265.553 47.9931 265.865 46.2269 265.865 44.2173V36.3389C265.865 34.3293 265.553 32.5631 264.907 31.057C264.291 29.5726 263.443 28.3392 262.355 27.3741C261.276 26.3972 260.015 25.6868 258.579 25.2428C257.179 24.7839 255.699 24.5561 254.143 24.5561H252.239V29.5597H253.961C254.954 29.5597 255.859 29.6914 256.678 29.9482C257.478 30.1987 258.16 30.5978 258.734 31.1452L258.737 31.1486L258.741 31.1518C259.325 31.6929 259.791 32.4025 260.126 33.3005L260.128 33.3077L260.131 33.3149C260.478 34.177 260.663 35.2584 260.663 36.5776V43.9785C260.663 45.2972 260.478 46.3905 260.13 47.2751L260.128 47.2784L260.127 47.2816C259.793 48.1592 259.328 48.861 258.741 49.4043Z" fill="#540CED"/>
<path d="M115.874 78.7342H117.281V66.0273H115.874V64.2053H122.512C123.294 64.2053 123.982 64.3143 124.577 64.5324C125.187 64.7504 125.695 65.0462 126.102 65.42C126.524 65.7937 126.837 66.2453 127.04 66.7748C127.259 67.2886 127.368 67.8492 127.368 68.4566V68.7369C127.368 69.1884 127.298 69.6011 127.157 69.9748C127.016 70.3486 126.821 70.6834 126.571 70.9792C126.321 71.2751 126.023 71.5321 125.679 71.7501C125.351 71.9525 124.991 72.1082 124.6 72.2172V72.4975C125.382 72.7155 126.039 73.136 126.571 73.7589C127.102 74.3662 127.368 75.1137 127.368 76.0013V76.2816C127.368 76.8889 127.259 77.4573 127.04 77.9867C126.837 78.5006 126.524 78.9522 126.102 79.3415C125.695 79.7152 125.187 80.0111 124.577 80.2291C123.982 80.4471 123.294 80.5561 122.512 80.5561H115.874V78.7342ZM119.252 78.7342H122.372C123.294 78.7342 124.045 78.5084 124.624 78.0568C125.202 77.5896 125.492 76.9512 125.492 76.1414V76.0013C125.492 75.1604 125.218 74.4986 124.671 74.0158C124.123 73.5175 123.38 73.2684 122.442 73.2684H119.252V78.7342ZM119.252 71.4464H122.442C123.38 71.4464 124.123 71.205 124.671 70.7223C125.218 70.2396 125.492 69.5777 125.492 68.7369V68.5967C125.492 67.8025 125.202 67.1796 124.624 66.728C124.045 66.2609 123.294 66.0273 122.372 66.0273H119.252V71.4464Z" fill="black"/>
<path d="M132.462 68.9704H136.685V70.5121H136.966C137.263 69.8736 137.685 69.4065 138.233 69.1106C138.78 68.7991 139.406 68.6434 140.109 68.6434C141.282 68.6434 142.229 69.0249 142.948 69.788C143.667 70.551 144.051 71.6644 144.097 73.1282L142.174 73.4085C142.174 72.334 141.916 71.5632 141.4 71.096C140.884 70.6133 140.25 70.3719 139.5 70.3719C139.015 70.3719 138.592 70.4654 138.233 70.6522C137.889 70.8391 137.599 71.096 137.365 71.4231C137.13 71.7501 136.958 72.1316 136.849 72.5676C136.739 73.0036 136.685 73.4708 136.685 73.9691V78.8743H139.64V80.5561H132.18V78.8743H134.855V70.6522H132.462V68.9704Z" fill="black"/>
<path d="M149.95 75.3239C149.997 76.4762 150.357 77.4028 151.029 78.1035C151.702 78.8043 152.64 79.1546 153.844 79.1546C154.392 79.1546 154.869 79.0924 155.275 78.9678C155.682 78.8432 156.026 78.6719 156.307 78.4539C156.605 78.2359 156.839 77.9867 157.011 77.7064C157.199 77.4106 157.347 77.0991 157.457 76.7721L159.193 77.2393C158.864 78.3137 158.254 79.1936 157.363 79.8788C156.487 80.5484 155.299 80.8832 153.797 80.8832C152.968 80.8832 152.202 80.743 151.498 80.4627C150.81 80.1668 150.216 79.7542 149.715 79.2247C149.215 78.6953 148.824 78.0646 148.543 77.3327C148.261 76.6008 148.12 75.7911 148.12 74.9034V74.3428C148.12 73.5331 148.261 72.7778 148.543 72.0771C148.84 71.3763 149.246 70.7768 149.762 70.2785C150.278 69.7646 150.881 69.3675 151.569 69.0872C152.272 68.7914 153.031 68.6434 153.844 68.6434C154.798 68.6434 155.619 68.8225 156.307 69.1807C157.011 69.5232 157.582 69.9515 158.02 70.4654C158.473 70.9792 158.802 71.5398 159.005 72.1472C159.224 72.7545 159.334 73.3151 159.334 73.829V75.3239H149.95ZM153.844 70.3719C153.328 70.3719 152.843 70.4576 152.39 70.6289C151.952 70.7846 151.561 71.0104 151.217 71.3063C150.888 71.6021 150.615 71.9525 150.396 72.3574C150.192 72.7467 150.06 73.1749 149.997 73.6421H157.504C157.472 73.1438 157.347 72.6922 157.128 72.2873C156.925 71.8824 156.651 71.5398 156.307 71.2595C155.979 70.9792 155.596 70.7612 155.158 70.6055C154.736 70.4498 154.298 70.3719 153.844 70.3719Z" fill="black"/>
<path d="M175.846 80.5561H172.468L171.06 69.8113H170.779L169.371 80.5561H165.993L164.163 68.9704H166.04L167.588 79.7152H167.87L169.23 68.9704H172.608L173.969 79.7152H174.251L175.799 68.9704H177.675L175.846 80.5561Z" fill="black"/>
<path d="M185.936 65.5134C185.936 65.0618 186.092 64.6803 186.405 64.3689C186.733 64.0418 187.124 63.8783 187.578 63.8783C188.032 63.8783 188.415 64.0418 188.727 64.3689C189.056 64.6803 189.22 65.0618 189.22 65.5134C189.22 65.965 189.056 66.3543 188.727 66.6813C188.415 66.9928 188.032 67.1485 187.578 67.1485C187.124 67.1485 186.733 66.9928 186.405 66.6813C186.092 66.3543 185.936 65.965 185.936 65.5134ZM182.605 78.8743H186.687V70.6522H183.027V68.9704H188.516V78.8743H192.317V80.5561H182.605V78.8743Z" fill="black"/>
<path d="M198.685 80.5561H196.855V68.9704H198.685V70.9325H198.967C199.686 69.4065 200.937 68.6434 202.72 68.6434C204.065 68.6434 205.136 69.0639 205.934 69.9048C206.732 70.7301 207.13 71.9759 207.13 73.6421V80.5561H205.301V74.0158C205.301 72.8012 205.027 71.8902 204.48 71.2829C203.932 70.6756 203.189 70.3719 202.251 70.3719C201.141 70.3719 200.265 70.7534 199.624 71.5165C198.998 72.264 198.685 73.2684 198.685 74.5297V80.5561Z" fill="black"/>
<path d="M221.695 78.7809H221.414C221.038 79.4817 220.522 80.0111 219.865 80.3693C219.224 80.7119 218.52 80.8832 217.754 80.8832C216.972 80.8832 216.237 80.7508 215.549 80.4861C214.861 80.2213 214.251 79.8398 213.719 79.3415C213.203 78.8432 212.789 78.2281 212.476 77.4962C212.179 76.7487 212.03 75.9001 212.03 74.9502V74.5764C212.03 73.6421 212.186 72.809 212.499 72.0771C212.812 71.3296 213.226 70.7067 213.743 70.2084C214.259 69.6945 214.861 69.3052 215.549 69.0405C216.237 68.7758 216.956 68.6434 217.707 68.6434C218.552 68.6434 219.287 68.8303 219.912 69.204C220.553 69.5622 221.054 70.0916 221.414 70.7924H221.695V68.9704H223.525V83.4059C223.525 83.9353 223.353 84.3713 223.009 84.7139C222.68 85.0565 222.25 85.2278 221.718 85.2278H214.141V83.546H221.062C221.484 83.546 221.695 83.3124 221.695 82.8453V78.7809ZM217.801 79.1546C218.348 79.1546 218.857 79.0534 219.326 78.851C219.795 78.6486 220.202 78.3605 220.546 77.9867C220.905 77.613 221.187 77.1692 221.39 76.6553C221.593 76.1259 221.695 75.5419 221.695 74.9034V74.6231C221.695 74.0003 221.593 73.4319 221.39 72.918C221.187 72.3885 220.905 71.9369 220.546 71.5632C220.202 71.1895 219.787 70.9014 219.302 70.6989C218.833 70.4809 218.333 70.3719 217.801 70.3719C217.254 70.3719 216.737 70.4732 216.253 70.6756C215.783 70.878 215.369 71.1661 215.009 71.5398C214.665 71.9136 214.392 72.3574 214.188 72.8713C214.001 73.3851 213.907 73.9535 213.907 74.5764V74.9502C213.907 75.6042 214.001 76.1881 214.188 76.702C214.392 77.2159 214.665 77.6597 215.009 78.0334C215.369 78.3916 215.783 78.6719 216.253 78.8743C216.722 79.0612 217.238 79.1546 217.801 79.1546Z" fill="black"/>
</svg>
